<svg xmlns="http://www.w3.org/2000/svg" version="1.1" xmlns:xlink="http://www.w3.org/1999/xlink" xmlns:svgjs="http://svgjs.dev/svgjs" viewBox="0 0 11.353052197265626 11.913138585646886"><g transform="matrix(0.8571428571428572,0,0,0.8571428571428572,1.621864599609375,8.117560672581707)"><g clip-path="url(#SvgjsClipPath1055)"><g clip-path="url(#SvgjsClipPath1053eff6cdb7-0ce1-4659-b342-550272def5ff)"><path d=" M 1.6585946571202954 -2.9605766801955795 C 1.8128963483511347 -3.6672885111106797 2.1063721140254748 -4.235330521475188 2.7987127089926043 -4.523259494327505 C 2.822160515012977 -4.537378603329019 2.8448519401939825 -4.561330663242303 2.8564497797309416 -4.586291230941409 C 2.9830175068516622 -4.876741473258282 3.139336213654146 -5.1598800341279425 3.1653052891390745 -5.4813418908588565 C 3.1700957011217312 -5.511344997487075 3.157489353798951 -5.531515153203525 3.1327809130462994 -5.548911912508962 C 2.9668813822785025 -5.6611084036817125 2.8012339784571605 -5.820200506895208 2.7893840119737465 -6.032743522757295 C 2.7669447137391963 -6.210745146954961 2.756355381988061 -6.424800924495782 2.8972943450567517 -6.557923952224349 C 2.9711675403682474 -6.630032258910656 3.052604544073412 -6.694576757203294 3.131268151367565 -6.761894651906945 C 3.1378234519754113 -6.767693571675425 3.14942129151237 -6.775509507015548 3.155220211280849 -6.773240364497449 C 3.212957282019186 -6.751557447102265 3.206906235304251 -6.8014785825004775 3.2190083287341205 -6.829464673557051 C 3.2409433730757593 -6.879890062848174 3.2590965132205643 -6.932080340764488 3.283048573133848 -6.981245095323334 C 3.3133038067085225 -7.043772578044327 3.373814273857871 -7.074027811619001 3.4398715338292427 -7.116889392516456 C 3.441132168561521 -6.990825919288646 3.4393672799363317 -6.883419840098553 3.43659388352532 -6.76391166747859 C 3.4287779481851963 -6.695585264989117 3.78881522772382 -6.749036177637708 3.9005074650036597 -6.574060076797509 C 3.9484115848302275 -6.50901132461196 3.951941362080606 -6.388998898099085 4.04548045921564 -6.369837250168457 C 4.110024957508278 -6.360256426203144 4.175830090533195 -6.356474522006311 4.2411309696652 -6.352692617809476 C 4.409551769897554 -6.340842651326062 4.320803084745176 -6.076613611440573 4.261553252328106 -5.990134068806295 C 3.7184718096627023 -5.451843038123549 4.510402548479801 -4.944311494908388 4.514184452676634 -4.368453549203755 C 4.506872771229421 -3.9625291654102086 4.336182828478968 -3.565429224742609 4.377279520751234 -3.158244206216785 C 4.3921550105921146 -3.1012635163178155 4.361647650070985 -3.054620031223526 4.36366466564263 -3.002681880253669 C 4.363916792589086 -2.9951180718600003 4.355092349463138 -2.9870500095734203 4.348284921908837 -2.975452170036461 C 3.965051963296296 -3.083866757012377 3.580054116058566 -3.1395868121790684 3.192787126302736 -2.9943616910206323 C 3.1274862471707303 -3.1912728362024705 2.9482239882407857 -3.327925641181417 2.7651798251140067 -3.410371152672403 C 2.683742821408842 -3.444912544336823 2.6249972428846826 -3.3465830352191315 2.7165193244480728 -3.3022086926429433 C 2.851659367748284 -3.236151432671572 3.0508396554482227 -3.1060539283004713 3.0747917153615063 -2.9545256334806442 C 2.507506085836364 -2.6537381863590905 1.9586257234024815 -2.0314888825066237 1.8897950670200978 -1.3757066947755598 L 1.6588467840667507 -1.3757066947755598 L 1.6588467840667507 -2.9605766801955795 Z" fill="#f9ae35" transform="matrix(1,0,0,1,0,0)" fill-rule="nonzero"></path></g><g clip-path="url(#SvgjsClipPath1053eff6cdb7-0ce1-4659-b342-550272def5ff)"><path d=" M 2.358499060481094 -6.085690181512976 C 2.250588727398089 -6.220578097866731 2.1497379488158415 -6.2793236763908915 1.976778863547287 -6.3121001794301215 C 1.908956714950725 -6.329496938735559 1.8280239651384715 -6.257388632049252 1.7697826405072237 -6.254363108691784 C 1.761714578220644 -6.247555681137483 1.753646515934064 -6.24074825358318 1.7455784536474845 -6.234192952975334 C 1.7470912153262186 -6.203433465507749 1.733476360217615 -6.178725024755098 1.7312072176995141 -6.147209156448146 C 1.7228870284664792 -6.0950188785318336 1.7362497566286268 -6.054426440152479 1.7531422620411534 -6.041820092829698 C 1.8065931746897443 -6.004757431700722 1.8739110693933951 -5.996185115521231 1.9351779173821104 -5.978031975376426 C 2.673405616604162 -5.763471943942695 1.966189531796151 -4.954396572766614 1.7186008703767337 -4.650079348394681 C 1.6986828416067397 -4.623606019016842 1.6782605589438342 -4.5968805626925455 1.6580904032273849 -4.570407233314706 L 1.6580904032273849 -4.083550099708907 C 1.9016450335035124 -4.737819525761237 2.993354711656342 -5.350740132594847 2.358499060481094 -6.085690181512976 Z" fill="#f9ae35" transform="matrix(1,0,0,1,0,0)" fill-rule="nonzero"></path></g><g clip-path="url(#SvgjsClipPath1053eff6cdb7-0ce1-4659-b342-550272def5ff)"><path d=" M 1.6585946571202954 -5.9896298149133855 L 1.6585946571202954 -4.743114191636805 C 1.7077594116791415 -4.805389547411343 1.7844060034016498 -4.900189279278656 1.8202080297983472 -4.946832764372946 C 1.9293789976136302 -5.090040869959736 2.037541457643091 -5.238039387529185 2.1091455104364862 -5.403686791350527 C 2.1061199870790186 -5.396375109903314 2.105615733186107 -5.395366602117492 2.107884875704208 -5.400661267993059 C 2.1288114122600246 -5.451086657284184 2.1459560446190062 -5.503529062146953 2.1542762338520425 -5.55773635563491 C 2.15553686858432 -5.573116099368702 2.1545283607984977 -5.559501244260099 2.1540241069055863 -5.555719340063265 C 2.1613357883528 -5.608161744926034 2.1580581380488764 -5.662116911467536 2.137635855385972 -5.711281666026382 C 2.1305763008852145 -5.730695440903465 2.093009385863327 -5.7871718769095235 2.059980755877641 -5.808602667358251 C 2.0604850097705527 -5.808350540411796 2.0609892636634637 -5.8080984134653395 2.061241390609919 -5.807846286518884 C 1.9434981066151447 -5.902141764493285 1.759445435702543 -5.870625896186333 1.6585946571202954 -5.9896298149133855 Z" fill="#d80e0e" transform="matrix(1,0,0,1,0,0)" fill-rule="nonzero"></path></g><g clip-path="url(#SvgjsClipPath1053eff6cdb7-0ce1-4659-b342-550272def5ff)"><path d=" M 5.133408233171636 -5.985343656823639 C 5.088781763648992 -5.946516107069474 5.00835326772965 -5.854994025506084 4.959692767063714 -5.9389522986758045 C 4.912040774183602 -6.057199836563491 4.865901542982224 -6.177212263076365 4.90876312387968 -6.307309767447464 C 4.788246443473893 -6.243773776940649 4.659661700781528 -6.2576407589957075 4.530824831142707 -6.268230090746844 C 4.487206869405884 -6.2712556141043105 4.448127192705263 -6.319411860877334 4.454934620259566 -6.34840645971973 C 4.478634553226394 -6.450517873034256 4.499308962835755 -6.5473346204732135 4.558558795252825 -6.637343940357869 C 4.13170787490346 -6.602550421746994 3.70536120844701 -6.6517151763058395 4.243147985236846 -7.062934225974954 C 3.89067451409189 -7.1030224104613975 3.5800541160585686 -7.272451718479573 3.2706943527575234 -7.432552329478891 C 3.2222859790380447 -7.453478866034707 3.178415890354767 -7.471884133125966 3.1680786855500864 -7.531638219435949 L 1.6583425301738408 -7.531638219435949 L 1.6583425301738408 -6.312604433323031 C 1.6805297014619354 -6.326723542324546 1.6999434763390178 -6.359247918417321 1.726921059609769 -6.360760680096055 C 2.3345470005678104 -6.674910855379755 2.8937645678063735 -5.740528391815232 2.587178200916341 -5.229214944403237 C 2.262186566935048 -4.644532555572656 1.5824523192906998 -4.158179675859769 1.6583425301738413 -3.422473246102272 C 1.8224771723164492 -3.910086760547439 2.137131601493062 -4.341728092879459 2.6133994033477252 -4.562087044081669 C 2.701643834607192 -4.6052007519255795 2.7770297915974225 -4.651844237019869 2.8032509940288066 -4.753955650334396 C 2.867039111482078 -4.919855181102193 3.0843725393268215 -5.313677471465869 3.0193237871412717 -5.477055732769109 C 2.5349879230000285 -5.818939872162929 2.504732689425354 -6.525651703078028 3.033947150035698 -6.838289116682995 C 3.076304477040242 -6.867031588578937 3.113871392062129 -6.89501767963551 3.1347979286179455 -6.949981353962835 C 3.1882488412665366 -7.091928824817348 3.297924062974731 -7.2076550932404775 3.4504608655803803 -7.242196484904897 C 3.512484094408462 -7.260601751996157 3.5611445950743974 -7.230598645367939 3.5611445950743974 -7.165802020128845 C 3.5611445950743974 -7.058395940938752 3.5611445950743974 -6.950989861748657 3.5611445950743974 -6.841818893933375 C 3.7850333235269864 -6.8072775022689544 3.9711030100112343 -6.7671893177825115 4.05354852150222 -6.528677226435496 C 4.060860202949433 -6.508002816826135 4.091367563470563 -6.485563518591585 4.113806861705115 -6.482285868287661 C 4.199277896553569 -6.465393362875135 4.319794576959355 -6.497161358128543 4.386608217770094 -6.432364732889449 C 4.542422670679666 -6.209484512222682 4.399466692039329 -5.930884236389224 4.235584176843178 -5.755403881656113 C 4.173560948015095 -5.684304082755627 4.203564054643314 -5.58118416165528 4.198269388767745 -5.494956745967459 C 4.2194480522700175 -5.288716903766762 4.36769869678592 -5.124078007731242 4.45291760468792 -4.941033844604464 C 4.490988773602718 -4.870186172650435 4.489476011923985 -4.868421284025245 4.558306668306368 -4.9039711834754875 C 5.077688178004944 -5.184588474880592 4.827578247120971 -4.973306093750784 5.02675853482091 -5.443522848890512 C 5.213836729090978 -5.74708369242308 5.173748544604535 -5.632618058732229 5.133408233171636 -5.985343656823639 Z" fill="#d80e0e" transform="matrix(1,0,0,1,0,0)" fill-rule="nonzero"></path></g><g clip-path="url(#SvgjsClipPath1053eff6cdb7-0ce1-4659-b342-550272def5ff)"><path d=" M 7.805953865601197 -3.3508691933088786 C 7.768386950579309 -2.931834208299639 7.907561025022812 -3.232369528474737 7.303716988261603 -2.977217058661651 C 7.275478770258574 -3.148159128358561 7.194546020446321 -3.3001916770712985 7.051842168752439 -3.402050963439369 C 7.028646489678523 -3.4262551502991085 7.097477146060908 -3.5324005947569233 7.104536700561665 -3.568959001992989 C 7.293884037349835 -4.16221370700306 6.930569107507288 -5.4004091410466035 6.600030680703972 -4.077246926047516 C 6.600030680703972 -4.077246926047516 6.59095411063157 -4.078759687726249 6.588432841167013 -4.0838022266553615 C 6.527922374017664 -4.225497570563419 6.453544924813258 -4.3606376138636325 6.337314402497217 -4.464009661910435 C 6.2687358730612885 -4.531579683560542 6.198644581946627 -4.598141197424824 6.125023513581587 -4.65991229930645 C 6.075858759022741 -4.701008991578717 6.030475908660729 -4.679073947237077 5.991648358906564 -4.6266315423743105 C 5.965679283421635 -4.591585896816978 5.97173033013657 -4.555279616527368 5.968956933725559 -4.522755240434595 C 5.90037840428963 -4.071448006279038 6.081909805737675 -3.6516566404304323 6.320674024031147 -3.2782566327296605 C 6.180743568748278 -3.220519561991323 6.086195963827421 -3.1100879594437627 6.016104672712759 -2.9830159784301316 C 5.999212167300232 -2.9595681724097576 5.98206753494125 -2.9313299544067286 5.957863348081511 -2.9184714801374927 C 5.880964629412547 -2.877374787865226 5.873148694072423 -2.80123245003563 5.89054545337786 -2.730132651135147 C 5.983832423566439 -2.3411007727541255 6.614654043598398 -2.689288085809336 6.3804281103411284 -2.0677951627962354 C 6.336053767764941 -1.9586241949809517 6.29747834495723 -1.8905499194379356 6.19738394721435 -1.8204586283232738 C 5.025750027035089 -3.186734551166272 5.749354363362715 -4.439805475050699 5.300316271725258 -4.458462869088413 C 5.107691284633164 -4.468295820000183 4.90422483884348 -4.419131065441336 4.719163660145056 -4.485692579305621 C 4.6359617678147025 -4.52653714463143 4.6306671019391334 -4.685629247844927 4.6041937725612945 -4.765049235978447 C 5.222156918324016 -5.128364165820994 4.947338546687391 -4.816483133055393 5.149544357744798 -5.360320956560162 C 5.176017687122638 -5.427386724317357 5.208794190161868 -5.5010077926823975 5.260984468078181 -5.546642769990865 C 5.332588520871576 -5.609170252711859 5.3043503028685475 -5.671949862379308 5.298047129207156 -5.7405283918152366 C 5.2879620513489325 -5.8476823440588745 5.282163131580452 -5.955088423248968 5.273842942347418 -6.0728317072437425 C 5.294013098063867 -6.064007264117796 5.304098175922091 -6.0619902485461505 5.310905603476392 -6.056191328777672 C 5.389317083824089 -5.989125561020478 5.466972183332421 -5.9213034124239154 5.545131536733663 -5.853985517720265 C 5.575386770308338 -5.8277643152888805 5.637157872189964 -5.828520696128248 5.663883328514259 -5.855750406345455 C 5.700189608803869 -5.9639128663749155 5.705232147732981 -6.079134880905133 5.7475894747375245 -6.187549467881048 C 5.860542346749642 -6.134854936071824 5.928364495346203 -6.022406317952618 5.9873622008168175 -5.91928639685227 C 6.012827022408835 -5.860792945274566 6.06602580811097 -5.855498279398999 6.1116607854194385 -5.836084504521915 C 6.458839590688825 -5.675983893522598 6.746768563541143 -5.366624130221553 6.898548985307425 -5.018436817166343 C 6.911155332630206 -4.883044646919677 7.023099696856501 -4.786480026427174 7.094451622703439 -4.678065439451259 C 7.170593960533036 -4.57040723331471 7.2452235366839 -4.461740519392337 7.32060949367413 -4.353578059362877 C 7.351873235034628 -4.308699462893777 7.39196141952107 -4.288529307177328 7.449194236366496 -4.288529307177328 C 7.55307053830621 -4.284243149087583 7.656946840245926 -4.253987915512909 7.761831649971463 -4.2514666460483514 C 7.789565614081581 -4.2504581382625295 7.798894311100438 -4.242390075975949 7.798390057207528 -4.214403984919377 C 7.801415580564994 -3.9418547558008488 7.809987896744486 -3.625939691891958 7.805953865601197 -3.3508691933088786 Z" fill="#061d8c" transform="matrix(1,0,0,1,0,0)" fill-rule="nonzero"></path></g><g clip-path="url(#SvgjsClipPath1053eff6cdb7-0ce1-4659-b342-550272def5ff)"><path d=" M 2.849642352176639 -0.8101859538756058 C 2.8486338443908163 -0.8076646844110504 2.847625336604995 -0.8051434149464942 2.846616828819172 -0.8023700185354814 C 2.852415748587651 -0.7985881143386475 2.85418063721284 -0.8028742724283919 2.857206160570308 -0.8071604305181381 C 2.855189144998663 -0.8081689383039619 2.8531721294270183 -0.8089253191433272 2.849642352176639 -0.8101859538756058 M 2.8443476863010715 -1.0010460523425104 C 2.848885971337273 -0.9992811637173213 2.8536763833199297 -0.9975162750921314 2.8582146683561307 -0.9957513864669423 C 2.794930804795771 -1.0973585458885573 2.6149121650264586 -1.0648341697957822 2.6378557171539194 -0.9312068881743043 C 2.649705683637334 -0.8545602964517958 2.7601372861848947 -0.8391805527180027 2.765179825114007 -0.9307026342813938 C 2.767953221525019 -0.9844056738764388 2.788123377241468 -1.0025588140212438 2.8443476863010715 -1.0010460523425104 M 2.5902037242738074 -0.25323752915514497 C 2.0531733283233393 -0.32635434362727445 1.826006949566827 -0.8238008089842106 1.8897950670200985 -1.320995147394691 C 1.8897950670200985 -1.3681428863818912 1.9477842647048909 -1.3623439666134116 1.9810650216370325 -1.359318443255944 C 2.0095553665865173 -1.3542759043268324 2.0239266025344875 -1.3426780647898742 2.019136190551831 -1.3058675306073537 C 1.86206110290998 0.06217328086083285 3.6302273784032355 -0.27139066929994904 3.0420152123222763 -1.174005137611065 C 2.699122565142635 -1.50454356441438 2.2054580039825336 -1.0204598272195922 2.581379281147861 -0.7438765669577787 C 2.6676066968356826 -0.7053011441500692 2.7931659161705804 -0.6997543513280462 2.8445998132475276 -0.7950583370882693 C 2.596002644042287 -0.6099971583898451 2.364045853303118 -0.9811280235725173 2.618441942276837 -1.1452626657151255 C 2.824681784477533 -1.2751080431397686 3.088658697416566 -1.0343268092746527 3.000414266157099 -0.8154806197511748 C 2.9658728744926797 -0.6967288279705786 2.879897585751314 -0.6163003320512361 2.755851128095149 -0.5971386841206092 C 2.2642035825066924 -0.5426792636861952 2.181001690176338 -1.1780391687543545 2.580622900308494 -1.3757066947755607 C 2.437919048614614 -1.3757066947755607 2.149990075762297 -1.3757066947755607 2.007034097121961 -1.3757066947755607 C 2.1071284948648414 -2.1875554623626536 2.904353899557509 -2.9941095640741784 3.7479706623980102 -2.9588117915703913 C 4.676302079247598 -2.8612386632920686 4.338704097943525 -2.6497041552158036 4.552255621591434 -3.292375741731176 C 5.057013768395583 -2.879139676490416 5.340656583158154 -2.9567947759987483 5.3217470621739835 -2.166376798860382 C 5.050962721680648 -2.146458770090388 4.7789177464550345 -2.118220552087359 4.509394040693978 -2.1159514095692584 C 4.460733540028045 -2.1159514095692584 4.433251702864382 -2.0758632250828146 4.447875065758808 -2.0302282477743487 C 4.537884385643464 -1.707757883257612 4.609740565383314 -1.5658104124030991 4.939522611347265 -1.4518490326051579 C 4.926664137078028 -1.4412597008540233 4.920865217309549 -1.4326873846745318 4.915318424487525 -1.4329395116209867 C 4.821779327352491 -1.43445227329972 4.728492357163912 -1.4369735427642771 4.635205386975333 -1.4399990661217448 C 4.326854131460111 -1.7271716581346945 3.9985848471748957 -1.9132413446189416 3.5603882142350294 -1.8398724032003555 C 3.546269105233515 -2.023672947166502 3.45449489672367 -2.455062152552066 3.215478551483743 -2.4374132663001724 C 3.1597584963170515 -2.4326228543175157 3.127486247170732 -2.401359112957019 3.0934491093992236 -2.3590017859524757 C 2.9663771283855915 -2.2296606624207422 2.8203956263877887 -2.1146907748369808 2.692819391481245 -1.9843411435194263 C 2.66432904653176 -1.963666733910065 2.647184414172778 -1.9175275027086878 2.6653375543175826 -1.8890371577592013 C 2.679960917212008 -1.8726489062395864 2.705425738804026 -1.8580255433451605 2.7303863065031315 -1.8794563337938879 C 2.863509334231699 -1.9896358093949926 2.9888164266201414 -2.1076312203362226 3.1116022495440276 -2.229156408527831 C 3.1539595765485715 -2.262437165459972 3.2089232508758965 -2.365052832667409 3.2659039407748667 -2.300760461321226 C 3.450712992526835 -2.05997922745611 3.4819767338873326 -1.7296929275992499 3.4270130595600072 -1.4377299236036425 C 3.3768397972153394 -1.4412597008540216 3.3312048199068727 -1.4445373511579431 3.2830485731338492 -1.448067128408323 C 3.323641011513203 -1.6467431622153503 3.272711368329169 -1.806843773214669 3.2094275047688083 -1.9921570788595488 C 3.18345842928388 -2.075358971189903 3.0742874614685967 -2.0077889495397967 3.09193634772049 -1.9412274356755148 C 3.1577414807454067 -1.7243982617236826 3.2187562017876665 -1.6061507238359969 3.1461436412084485 -1.3764630756149279 L 2.9520058924376213 -1.3764630756149279 C 3.5974508753640047 -1.086012833298053 3.2442210233796827 -0.18944941170187324 2.5902037242738074 -0.25323752915514497 Z" fill="#77bc4a" transform="matrix(1,0,0,1,0,0)" fill-rule="nonzero"></path></g><g clip-path="url(#SvgjsClipPath1053eff6cdb7-0ce1-4659-b342-550272def5ff)"><path d=" M 7.805953865601197 -4.752190761709207 C 7.785531582938291 -4.629404938785321 7.80393685002955 -4.500063815253588 7.797885803314617 -4.371983326454133 C 7.679386138480476 -4.3871109432414706 7.563407743110892 -4.401734306135897 7.44768147468776 -4.4176183037626 C 7.438100650722447 -4.418878938494879 7.428015572864224 -4.429468270246014 7.421712399202834 -4.43829271337196 C 7.2976659415466685 -4.609486910015326 7.174375864729871 -4.781689614444513 7.052094295698896 -4.953892318873701 C 7.028646489678523 -5.04717928906228 6.989566812977902 -5.141979020929593 6.9416626931513346 -5.225685167152859 C 6.751558975523796 -5.528489629846057 6.492876728460332 -5.816166475751918 6.156539381888536 -5.954332042409597 C 6.063252411699958 -5.976771340644147 6.016104672712758 -6.174438866665352 5.8839901527700125 -6.254363108691783 C 5.828017970656865 -6.293947039285316 5.768516011293339 -6.332018208200114 5.696659831553488 -6.336052239343404 C 5.633123841046672 -6.339582016593782 5.63035044463566 -6.3358001123969485 5.6152228278483225 -6.272768375783044 C 5.595556926024784 -6.191079245131423 5.576395278094157 -6.109137987533347 5.554208106806063 -6.014842509558946 C 5.333344901710941 -6.190322864292057 5.282415258526905 -6.336052239343404 5.045920182751535 -6.07963913479804 C 5.041129770768878 -6.080395515637407 5.036087231839766 -6.081404023423229 5.031296819857109 -6.082160404262596 C 5.02776704260673 -6.136619824697009 5.016925583909139 -6.19183562597079 5.022724503677617 -6.2450344116729255 C 5.029279804285464 -6.305544878822275 5.051719102520014 -6.364038330399978 5.065333957628617 -6.424044543656415 C 5.08071370136241 -6.483546503019941 5.00709263299737 -6.5382580504008105 4.957675751492069 -6.4951443425569 C 4.851782433980708 -6.416480735262747 4.732778515253658 -6.348154332773274 4.596377837221166 -6.395554198706931 C 4.603941645614835 -6.52161767193474 4.699749885267971 -6.601289787014715 4.770849684168454 -6.692055487738737 C 4.797323013546293 -6.737438338100749 4.791271966831359 -6.8115636603587015 4.721684929609609 -6.797696678303643 C 4.659913827727983 -6.788367981284784 4.597638471953444 -6.779291411212382 4.536875877857639 -6.765424429157323 C 4.4040049770755285 -6.73516919558265 4.273907472704428 -6.749036177637708 4.142297206654596 -6.778535030373016 C 4.204068308536222 -6.927289928781831 4.376018886018954 -6.976202556394221 4.5066206442829655 -7.046798101401794 C 4.526034419160048 -7.056631052313564 4.545196067090675 -7.086382031995327 4.5457003209835865 -7.1075606954975985 C 4.546204574876497 -7.126218089535315 4.5220003880167585 -7.146892499144674 4.505612136497142 -7.163532877610746 C 4.149356761155353 -7.1829466524878285 3.8082290026009007 -7.28531019274881 3.492818192584921 -7.456504389392175 C 7.0266294741068736 -7.5878625284955525 5.558998518788718 -6.226629144581667 7.006207191443971 -5.810619682929895 C 7.360445551214116 -6.00778295505819 6.671130479604454 -6.671885332022289 6.723825011413679 -6.966621732428908 C 6.739961135986838 -7.221774202241995 6.890228796074387 -7.320607965252597 7.13580044192216 -7.27951127298033 C 7.195302401285685 -7.274468734051219 7.225305507913904 -7.225303979492372 7.260351153471236 -7.1829466524878285 C 7.363975328464495 -7.071758669100901 7.541724825715707 -7.0967192368000065 7.670057441461617 -7.030409849882179 C 7.669553187568705 -7.026123691792433 7.669048933675794 -7.021837533702688 7.668544679782882 -7.017299248666487 C 7.617110782705937 -7.0157864869877535 7.564920504789622 -7.009483313326363 7.513738734659133 -7.013769471416108 C 7.258838391792503 -7.017047121720031 7.2578298840066795 -6.689534218274183 7.316827589477294 -6.5155666252198055 C 7.397508212343092 -6.2667173290681095 7.613833132402014 -6.088211450977531 7.688462708552875 -5.836588758414823 C 7.780489044009177 -5.4838631603234145 7.8135176739948635 -5.117522707123399 7.805953865601197 -4.752190761709207 Z" fill="#e498f4" transform="matrix(1,0,0,1,0,0)" fill-rule="nonzero"></path></g><g clip-path="url(#SvgjsClipPath1053eff6cdb7-0ce1-4659-b342-550272def5ff)"><path d=" M 7.805953865601197 -1.6943951550954628 C 7.787548598509936 -1.5910231070486578 7.802424088350817 -1.4851297895372984 7.797885803314617 -1.378227964240116 L 5.300316271725256 -1.378227964240116 C 5.309644968744113 -1.5022744218962796 5.4679806911182425 -1.5025265488427362 5.561267661306822 -1.5267307357024755 C 5.7375043968793 -1.5630370159920846 5.913993259398232 -1.6031252004785292 6.085439582988053 -1.6565761131271186 C 6.570027574075753 -1.7422992749220292 6.789630144438598 -2.6217180641592286 6.159060651353093 -2.6353329192678308 C 6.103592723132858 -2.6517211707874457 6.040308859572497 -2.6618062486456715 6.012827022408835 -2.725846493045398 C 5.994169628371119 -2.768708073942853 6.003750452336433 -2.801988830874995 6.042830129037054 -2.8272015255205565 C 6.193349916071058 -2.9459533173011527 6.126788402206776 -3.0657136168675727 6.41824715230947 -3.193541978720571 C 6.466403399082494 -3.2144685152763888 6.492624601513878 -3.261364127317134 6.453544924813258 -3.310528881875979 C 6.191837154392324 -3.65745556019891 6.024172734999337 -4.09136603504903 6.096533168632101 -4.529310541042442 C 6.392530203770997 -4.29911863892846 6.582381794452077 -3.9448802791583155 6.579860524987523 -3.5664377325284327 C 6.579608398041066 -3.5109698043081954 6.599778553757517 -3.48600923660909 6.642640134654972 -3.48600923660909 C 6.68298044608787 -3.485757109662634 6.703654855697231 -3.5089527887365515 6.702898474857864 -3.5497973540623615 C 6.681467684409138 -3.8916814934561805 6.7281111695034275 -4.242390075975946 6.907373428433371 -4.53914349195421 C 6.911659586523116 -4.5386392380612985 6.915945744612862 -4.538134984168387 6.920231902702608 -4.5376307302754775 C 7.042009217840671 -4.18465300523761 7.1204206981883695 -3.7830147795338087 6.9172063793451395 -3.4433997826580915 C 6.889472415235023 -3.3972605514567125 6.911911713469572 -3.352381954987613 6.965110499171708 -3.3110331357688914 C 7.312541431387552 -3.0838667570123786 7.069238928057879 -2.779549532640446 7.275478770258574 -2.8186292093410668 C 7.4428910627051055 -2.8945194202242073 7.607025704847714 -2.973687281411272 7.792843264385503 -2.990075532930887 C 7.830662306353848 -2.851153585433842 7.7860358368312035 -2.62398720667733 7.798390057207528 -2.4785099585724364 C 7.810996404530309 -2.4517845022481417 7.809231515905119 -2.198396921060244 7.798390057207528 -2.175453368932784 C 7.794103899117782 -2.036531421435736 7.8107442775838525 -1.836090499003519 7.805953865601197 -1.6943951550954628 Z" fill="#ffcc00" transform="matrix(1,0,0,1,0,0)" fill-rule="nonzero"></path></g><g clip-path="url(#SvgjsClipPath1053eff6cdb7-0ce1-4659-b342-550272def5ff)"><path d=" M 7.805953865601197 -6.281088565016081 C 7.779480536223356 -6.171917597200798 7.8188123398704334 -6.053417932366656 7.787548598509936 -5.946263980123019 C 7.659972363603392 -6.232932318243058 7.354394504499181 -6.467914632339694 7.419695383631186 -6.811563660358702 C 7.430536842328778 -6.944686688087269 7.700060548089836 -6.857955018506536 7.793347518278413 -6.929306944353477 C 7.795616660796514 -6.925777167103098 7.800659199725628 -6.917961231762973 7.80570173865474 -6.91014529642285 C 7.805449611708285 -6.889470886813489 7.8089793889586625 -6.783073315409218 7.7981379302610705 -6.766685063889603 C 7.794103899117782 -6.625998227767367 7.8107442775838525 -6.424296670602872 7.805953865601197 -6.281088565016081 Z" fill="#4773fc" transform="matrix(1,0,0,1,0,0)" fill-rule="nonzero"></path></g><g clip-path="url(#SvgjsClipPath1053eff6cdb7-0ce1-4659-b342-550272def5ff)"><path d=" M 4.717650898466319 -1.72616315034887 C 4.67680633314051 -1.8154160893941587 4.617808627669895 -1.9001307434032473 4.596629964167623 -1.9959389830563827 C 4.861363257946023 -2.0133357423618197 5.122566774474045 -2.030480374720801 5.386291560466621 -2.053928180741174 C 5.460164755778118 -2.0718291939395233 5.427388252738886 -2.3451348038974142 5.432178664721542 -2.4139654602797984 C 5.426127618006608 -3.060923204884917 4.9579278784385235 -3.0775635833509867 4.572173650361428 -3.449450829373025 C 4.55704603357409 -3.464074192267451 4.53233759282144 -3.468612477303651 4.511915310158534 -3.477689047376054 C 4.507377025122333 -3.4756720318044083 4.503090867032586 -3.4736550162327635 4.498552581996385 -3.471638000661118 C 4.539649274268653 -3.7754509711401396 4.622346912706094 -4.066405467349924 4.636970275600521 -4.375513103704511 C 4.91960458257727 -4.235582648421644 5.395872384431934 -4.442074617568796 5.3366225520148625 -4.250710265208981 C 5.262245102810456 -3.2684236818178896 5.460416882724571 -2.5473406149548206 6.083674694362863 -1.7791098091045496 C 5.901134785128994 -1.7266674042417804 5.729184207646263 -1.681536680826226 5.545887917573028 -1.6439697658043384 C 5.392342607181554 -1.620774086730422 5.244596216558562 -1.599847550174605 5.185346384141492 -1.4339480194068077 C 5.1712272751399775 -1.3983981199565658 5.16013368949593 -1.3552844121126544 5.100631730132404 -1.3815056145440376 C 5.0930679217387365 -1.623547483141433 4.851278180087798 -1.5758954902613214 4.717650898466319 -1.72616315034887" fill="#1be2b2" transform="matrix(1,0,0,1,0,0)" fill-rule="nonzero"></path></g><g clip-path="url(#SvgjsClipPath1053eff6cdb7-0ce1-4659-b342-550272def5ff)"><path d=" M 4.9415396269189085 -7.528360569132027 L 7.795112406903603 -7.528360569132027 L 7.795112406903603 -7.134034024875438 C 7.657703221085293 -7.171600939897327 7.518781273588245 -7.205133823775923 7.382380595555755 -7.24623051604819 C 7.365235963196773 -7.251525181923757 7.34985621946298 -7.27093895680084 7.339266887711846 -7.287327208320455 C 7.27800003972313 -7.381874813241312 7.183452434802272 -7.410113031244341 7.079576132862559 -7.4199459821561105 C 6.776771670169359 -7.438099122300915 6.6620539095320535 -7.281528288551976 6.599526426811059 -7.008222678594085 C 6.561203130949806 -6.657766223020774 6.885942637984643 -6.398327595117943 6.9653626261181625 -6.074344468922473 C 6.9762040848157545 -6.038542442525775 6.979985989012588 -6.000723400557432 6.985532781834613 -5.9634086124820005 C 6.990323193817269 -5.931892744175048 6.9681360225291735 -5.924076808834924 6.946200978187536 -5.93239699806796 C 5.989883470281373 -6.347397951933908 6.6338156915290245 -7.261610259781983 4.940531119133087 -7.519283999059624 C 4.940783246079542 -7.522309522417093 4.941035373025999 -7.525335045774559 4.9415396269189085 -7.528360569132027" fill="#4773fc" transform="matrix(1,0,0,1,0,0)" fill-rule="nonzero"></path></g><g clip-path="url(#SvgjsClipPath1053eff6cdb7-0ce1-4659-b342-550272def5ff)"><path d=" M 4.490736646656263 -1.377471583400749 L 3.5349233926430115 -1.377471583400749 C 3.549294628590982 -1.4876510590018537 3.5636658645389523 -1.5965698998706808 3.5782892274333786 -1.7082621371505198 C 3.9244595249169434 -1.78818637917695 4.2456692547014026 -1.6174964364264968 4.497544074210566 -1.3870524073660615 C 4.495274931692464 -1.3840268840085956 4.493005789174363 -1.3807492337046714 4.490736646656263 -1.377471583400749" fill="#ff6600" transform="matrix(1,0,0,1,0,0)" fill-rule="nonzero"></path></g><g clip-path="url(#SvgjsClipPath1053eff6cdb7-0ce1-4659-b342-550272def5ff)"><path d=" M 1.9850990527803223 -4.060858674527901 C 1.9873681952984228 -4.063127817046001 1.9893852108700678 -4.065144832617646 1.9916543533881679 -4.0674139751357465 C 1.9893852108700678 -4.065144832617646 1.9873681952984228 -4.062875690099546 1.9850990527803223 -4.060858674527901" fill="#3a9089" transform="matrix(1,0,0,1,0,0)" fill-rule="nonzero"></path></g><g clip-path="url(#SvgjsClipPath1053eff6cdb7-0ce1-4659-b342-550272def5ff)"><path d=" M 1.6827988439800352 -3.4774369204295983 L 1.6827988439800352 -3.4872698713413675 L 1.6827988439800352 -3.4774369204295983 Z" fill="#3a9089" transform="matrix(1,0,0,1,0,0)" fill-rule="nonzero"></path></g><g clip-path="url(#SvgjsClipPath1053eff6cdb7-0ce1-4659-b342-550272def5ff)"><path d=" M 4.868422812446779 -2.0133357423618197 L 4.85858986153501 -2.0133357423618197 L 4.868422812446779 -2.0133357423618197 Z" fill="#3a9089" transform="matrix(1,0,0,1,0,0)" fill-rule="nonzero"></path></g><g clip-path="url(#SvgjsClipPath1053eff6cdb7-0ce1-4659-b342-550272def5ff)"><path d=" M 4.604445899507747 -1.974003938714743 L 4.604445899507747 -1.9641709878029738 L 4.604445899507747 -1.974003938714743 Z" fill="#3a9089" transform="matrix(1,0,0,1,0,0)" fill-rule="nonzero"></path></g><g clip-path="url(#SvgjsClipPath1053eff6cdb7-0ce1-4659-b342-550272def5ff)"><path d=" M 3.696284638374608 -1.8534872583089577 L 3.7061175892863774 -1.8534872583089577 C 3.7041005737147317 -1.851470242737312 3.702083558143088 -1.849705354112123 3.699814415624987 -1.8476883385404772 C 3.6985537808927074 -1.849705354112123 3.6972931461604293 -1.851470242737312 3.696284638374608 -1.8534872583089577" fill="#5a9a43" transform="matrix(1,0,0,1,0,0)" fill-rule="nonzero"></path></g><g clip-path="url(#SvgjsClipPath1053eff6cdb7-0ce1-4659-b342-550272def5ff)"><path d=" M 4.717650898466319 -1.72616315034887 C 4.719920040984421 -1.7241461347772242 4.721937056556065 -1.7218769922591246 4.724206199074166 -1.7196078497410232 C 4.721937056556065 -1.7218769922591246 4.719920040984421 -1.7241461347772242 4.717650898466319 -1.72616315034887" fill="#3a9089" transform="matrix(1,0,0,1,0,0)" fill-rule="nonzero"></path></g></g><g><path d=" M 0.6516326293945319 1.0995 Q 0.647132629394532 1.06425 0.641507629394532 0.9978749999999998 Q 0.635882629394532 0.9314999999999999 0.6283826293945319 0.8456249999999998 Q 0.620882629394532 0.7597499999999999 0.6133826293945319 0.6656249999999999 Q 0.605882629394532 0.5714999999999999 0.598382629394532 0.47924999999999984 Q 0.590882629394532 0.3869999999999999 0.585257629394532 0.3086249999999999 Q 0.579632629394532 0.23024999999999984 0.5755076293945319 0.17512499999999986 Q 0.571382629394532 0.11999999999999988 0.5698826293945319 0.10124999999999984 Q 0.600632629394532 0.09749999999999992 0.6486326293945319 0.09299999999999986 Q 0.696632629394532 0.08849999999999991 0.7513826293945319 0.0851249999999999 Q 0.8061326293945319 0.08174999999999988 0.8541326293945319 0.08174999999999988 Q 0.992132629394532 0.08174999999999988 1.088132629394532 0.11212499999999992 Q 1.184132629394532 0.14249999999999985 1.242632629394532 0.20587499999999992 Q 1.301132629394532 0.2692499999999999 1.327382629394532 0.3667499999999999 Q 1.353632629394532 0.46424999999999994 1.353632629394532 0.5969999999999999 Q 1.353632629394532 0.7507499999999999 1.312757629394532 0.848625 Q 1.271882629394532 0.9464999999999999 1.186007629394532 1.000875 Q 1.100132629394532 1.0552499999999998 0.967757629394532 1.076625 Q 0.8353826293945319 1.0979999999999999 0.6516326293945319 1.0995 M 0.875882629394532 0.8512499999999998 Q 0.9651326293945319 0.84825 1.0165076293945319 0.8204999999999999 Q 1.067882629394532 0.7927499999999998 1.089257629394532 0.7406249999999999 Q 1.110632629394532 0.6884999999999999 1.110632629394532 0.6134999999999999 Q 1.110632629394532 0.5294999999999999 1.090007629394532 0.45524999999999993 Q 1.069382629394532 0.3809999999999999 1.021757629394532 0.33524999999999994 Q 0.974132629394532 0.28949999999999987 0.892382629394532 0.28949999999999987 Q 0.878882629394532 0.28949999999999987 0.863507629394532 0.28949999999999987 Q 0.8481326293945319 0.28949999999999987 0.8361326293945319 0.2909999999999999 Q 0.8421326293945319 0.3727499999999999 0.848507629394532 0.4713749999999999 Q 0.854882629394532 0.5699999999999998 0.862382629394532 0.6686249999999999 Q 0.869882629394532 0.7672499999999999 0.875882629394532 0.8512499999999998 M 1.746631164550782 1.0739999999999998 Q 1.733881164550782 1.0747499999999999 1.6982561645507819 1.077375 Q 1.662631164550782 1.0799999999999998 1.622881164550782 1.0799999999999998 Q 1.593631164550782 1.0799999999999998 1.564006164550782 1.078125 Q 1.5343811645507819 1.07625 1.505881164550782 1.0732499999999998 Q 1.509631164550782 1.05375 1.514506164550782 0.9933749999999999 Q 1.519381164550782 0.9329999999999998 1.524256164550782 0.8512499999999998 Q 1.529131164550782 0.7694999999999999 1.5340061645507819 0.6821249999999999 Q 1.538881164550782 0.5947499999999999 1.541506164550782 0.5182499999999999 Q 1.544131164550782 0.44174999999999986 1.544131164550782 0.3952499999999999 Q 1.559131164550782 0.39449999999999985 1.588381164550782 0.3929999999999999 Q 1.617631164550782 0.39149999999999985 1.6513811645507819 0.3903749999999999 Q 1.685131164550782 0.3892499999999999 1.7158811645507819 0.38812499999999983 Q 1.746631164550782 0.3869999999999999 1.764631164550782 0.3869999999999999 Q 1.768381164550782 0.4102499999999999 1.770631164550782 0.46199999999999986 Q 1.772881164550782 0.5137499999999999 1.772881164550782 0.5774999999999999 Q 1.772881164550782 0.6457499999999998 1.771006164550782 0.7222499999999998 Q 1.769131164550782 0.7987499999999998 1.765756164550782 0.8703749999999999 Q 1.7623811645507819 0.942 1.7571311645507819 0.9963749999999999 Q 1.751881164550782 1.0507499999999999 1.746631164550782 1.0739999999999998 M 1.662631164550782 0.2902499999999999 Q 1.595131164550782 0.2902499999999999 1.549381164550782 0.25087499999999985 Q 1.503631164550782 0.2114999999999999 1.503631164550782 0.1469999999999999 Q 1.503631164550782 0.1027499999999999 1.525381164550782 0.07124999999999981 Q 1.547131164550782 0.03974999999999995 1.582006164550782 0.02287499999999998 Q 1.616881164550782 0.005999999999999783 1.655881164550782 0.005999999999999783 Q 1.718131164550782 0.005999999999999783 1.759006164550782 0.046499999999999986 Q 1.799881164550782 0.08699999999999986 1.799881164550782 0.15074999999999983 Q 1.799881164550782 0.20999999999999985 1.760881164550782 0.25012499999999993 Q 1.7218811645507819 0.2902499999999999 1.662631164550782 0.2902499999999999 M 2.372870178222657 0.8827499999999999 Q 2.219870178222657 0.8827499999999999 2.130245178222657 0.8392499999999998 Q 2.0406201782226567 0.79575 2.002370178222657 0.7271249999999999 Q 1.964120178222657 0.6584999999999999 1.964120178222657 0.5827499999999999 Q 1.964120178222657 0.48524999999999985 2.015120178222657 0.41849999999999987 Q 2.066120178222657 0.3517499999999999 2.153870178222657 0.31762499999999994 Q 2.241620178222657 0.28349999999999986 2.354120178222657 0.28349999999999986 Q 2.534870178222657 0.28349999999999986 2.624495178222657 0.3629999999999999 Q 2.714120178222657 0.4424999999999999 2.714120178222657 0.5737499999999999 Q 2.714120178222657 0.6757499999999999 2.670995178222657 0.7443749999999999 Q 2.627870178222657 0.813 2.551370178222657 0.8478749999999999 Q 2.474870178222657 0.8827499999999999 2.372870178222657 0.8827499999999999 M 2.339120178222657 1.4497499999999999 Q 2.222120178222657 1.4497499999999999 2.126495178222657 1.427625 Q 2.030870178222657 1.4055 1.9742451782226569 1.3496249999999999 Q 1.917620178222657 1.29375 1.917620178222657 1.19325 Q 1.917620178222657 1.131 1.958120178222657 1.078125 Q 1.998620178222657 1.02525 2.074370178222657 0.9911249999999999 Q 2.150120178222657 0.9569999999999999 2.253620178222657 0.9509999999999998 Q 2.300120178222657 0.948 2.352245178222657 0.9468749999999999 Q 2.404370178222657 0.9457499999999999 2.474870178222657 0.9457499999999999 Q 2.594120178222657 0.9457499999999999 2.670245178222657 0.9986249999999999 Q 2.746370178222657 1.0514999999999999 2.746370178222657 1.1677499999999998 Q 2.746370178222657 1.26975 2.692745178222657 1.3319999999999999 Q 2.639120178222657 1.39425 2.547245178222657 1.422 Q 2.455370178222657 1.4497499999999999 2.339120178222657 1.4497499999999999 M 2.3458701782226568 1.30425 Q 2.396870178222657 1.30425 2.436620178222657 1.29375 Q 2.476370178222657 1.28325 2.499620178222657 1.2607499999999998 Q 2.522870178222657 1.2382499999999999 2.522870178222657 1.2014999999999998 Q 2.522870178222657 1.16925 2.504495178222657 1.1508749999999999 Q 2.4861201782226567 1.1324999999999998 2.457995178222657 1.125 Q 2.429870178222657 1.1175 2.399870178222657 1.1175 Q 2.379620178222657 1.1175 2.353370178222657 1.1175 Q 2.327120178222657 1.1175 2.301995178222657 1.1175 Q 2.276870178222657 1.1175 2.260370178222657 1.1175 Q 2.232620178222657 1.1175 2.208995178222657 1.124625 Q 2.185370178222657 1.1317499999999998 2.170745178222657 1.1504999999999999 Q 2.156120178222657 1.16925 2.156120178222657 1.2037499999999999 Q 2.156120178222657 1.2382499999999999 2.1808701782226567 1.2607499999999998 Q 2.2056201782226568 1.28325 2.248370178222657 1.29375 Q 2.291120178222657 1.30425 2.3458701782226568 1.30425 M 2.159870178222657 1.0282499999999999 Q 2.057870178222657 1.00725 2.0177451782226568 0.9704999999999999 Q 1.977620178222657 0.9337499999999999 1.977620178222657 0.8887499999999999 Q 1.977620178222657 0.8534999999999999 1.993370178222657 0.8276249999999998 Q 2.009120178222657 0.80175 2.031245178222657 0.7856249999999999 Q 2.0533701782226568 0.7694999999999999 2.073620178222657 0.7642499999999999 L 2.222120178222657 0.8392499999999998 Q 2.193620178222657 0.8489999999999999 2.179745178222657 0.8643749999999999 Q 2.165870178222657 0.8797499999999999 2.165870178222657 0.8955 Q 2.165870178222657 0.9164999999999999 2.188745178222657 0.9337499999999999 Q 2.211620178222657 0.9509999999999998 2.253620178222657 0.9509999999999998 L 2.159870178222657 1.0282499999999999 M 2.352620178222657 0.7042499999999998 Q 2.400620178222657 0.7042499999999998 2.433620178222657 0.6892499999999999 Q 2.466620178222657 0.6742499999999999 2.483495178222657 0.6449999999999999 Q 2.500370178222657 0.6157499999999999 2.500370178222657 0.5737499999999999 Q 2.500370178222657 0.5392499999999999 2.481245178222657 0.5129999999999999 Q 2.4621201782226567 0.4867499999999999 2.430995178222657 0.4721249999999999 Q 2.399870178222657 0.4574999999999999 2.362370178222657 0.4574999999999999 Q 2.300870178222657 0.4574999999999999 2.2524951782226568 0.4837499999999999 Q 2.2041201782226567 0.5099999999999999 2.2041201782226567 0.5767499999999999 Q 2.2041201782226567 0.6389999999999999 2.246495178222657 0.6716249999999999 Q 2.288870178222657 0.7042499999999998 2.352620178222657 0.7042499999999998 M 2.6511201782226568 0.4724999999999999 L 2.519120178222657 0.36149999999999993 Q 2.528120178222657 0.33224999999999993 2.553245178222657 0.2988749999999999 Q 2.578370178222657 0.26549999999999985 2.610995178222657 0.23662499999999986 Q 2.643620178222657 0.20774999999999988 2.6743701782226568 0.19274999999999987 Q 2.684870178222657 0.2084999999999999 2.704370178222657 0.23624999999999985 Q 2.723870178222657 0.2639999999999999 2.7448701782226568 0.29249999999999987 Q 2.765870178222657 0.32099999999999984 2.780870178222657 0.3397499999999999 Q 2.763620178222657 0.34799999999999986 2.7437451782226567 0.36187499999999984 Q 2.723870178222657 0.3757499999999999 2.705120178222657 0.3933749999999999 Q 2.6863701782226572 0.4109999999999999 2.672120178222657 0.4312499999999999 Q 2.657870178222657 0.4514999999999999 2.6511201782226568 0.4724999999999999 M 3.1273379516601567 1.0739999999999998 Q 3.114587951660157 1.0747499999999999 3.078962951660157 1.077375 Q 3.043337951660157 1.0799999999999998 3.003587951660157 1.0799999999999998 Q 2.974337951660157 1.0799999999999998 2.944712951660157 1.078125 Q 2.915087951660157 1.07625 2.886587951660157 1.0732499999999998 Q 2.890337951660157 1.05375 2.895212951660157 0.9933749999999999 Q 2.900087951660157 0.9329999999999998 2.904962951660157 0.8512499999999998 Q 2.909837951660157 0.7694999999999999 2.914712951660157 0.6821249999999999 Q 2.919587951660157 0.5947499999999999 2.922212951660157 0.5182499999999999 Q 2.924837951660157 0.44174999999999986 2.924837951660157 0.3952499999999999 Q 2.939837951660157 0.39449999999999985 2.969087951660157 0.3929999999999999 Q 2.998337951660157 0.39149999999999985 3.032087951660157 0.3903749999999999 Q 3.065837951660157 0.3892499999999999 3.096587951660157 0.38812499999999983 Q 3.1273379516601567 0.3869999999999999 3.145337951660157 0.3869999999999999 Q 3.149087951660157 0.4102499999999999 3.1513379516601567 0.46199999999999986 Q 3.153587951660157 0.5137499999999999 3.153587951660157 0.5774999999999999 Q 3.153587951660157 0.6457499999999998 3.1517129516601567 0.7222499999999998 Q 3.149837951660157 0.7987499999999998 3.146462951660157 0.8703749999999999 Q 3.143087951660157 0.942 3.137837951660157 0.9963749999999999 Q 3.132587951660157 1.0507499999999999 3.1273379516601567 1.0739999999999998 M 3.043337951660157 0.2902499999999999 Q 2.975837951660157 0.2902499999999999 2.930087951660157 0.25087499999999985 Q 2.884337951660157 0.2114999999999999 2.884337951660157 0.1469999999999999 Q 2.884337951660157 0.1027499999999999 2.9060879516601568 0.07124999999999981 Q 2.927837951660157 0.03974999999999995 2.962712951660157 0.02287499999999998 Q 2.997587951660157 0.005999999999999783 3.036587951660157 0.005999999999999783 Q 3.098837951660157 0.005999999999999783 3.139712951660157 0.046499999999999986 Q 3.180587951660157 0.08699999999999986 3.180587951660157 0.15074999999999983 Q 3.180587951660157 0.20999999999999985 3.141587951660157 0.25012499999999993 Q 3.102587951660157 0.2902499999999999 3.043337951660157 0.2902499999999999 M 3.303576965332032 0.29774999999999985 Q 3.299826965332032 0.2812499999999999 3.297201965332032 0.25087499999999985 Q 3.294576965332032 0.22049999999999992 3.2927019653320317 0.18712499999999987 Q 3.290826965332032 0.15374999999999983 3.289701965332032 0.12712499999999993 Q 3.288576965332032 0.10049999999999992 3.288576965332032 0.09074999999999989 Q 3.372576965332032 0.08474999999999988 3.480201965332032 0.07987499999999992 Q 3.587826965332032 0.07499999999999996 3.698076965332032 0.07499999999999996 Q 3.781326965332032 0.07499999999999996 3.860451965332032 0.07837499999999986 Q 3.939576965332032 0.08174999999999988 4.004826965332032 0.09149999999999991 Q 4.005576965332032 0.15374999999999983 4.001076965332032 0.20737499999999986 Q 3.996576965332032 0.2609999999999999 3.990576965332032 0.2879999999999999 Q 3.976326965332032 0.2879999999999999 3.949326965332032 0.2876249999999999 Q 3.922326965332032 0.2872499999999999 3.8897019653320317 0.2868749999999999 Q 3.857076965332032 0.28649999999999987 3.825576965332032 0.28612499999999985 Q 3.794076965332032 0.28574999999999984 3.770826965332032 0.2849999999999999 Q 3.771576965332032 0.31274999999999986 3.7738269653320318 0.3671249999999999 Q 3.776076965332032 0.4214999999999999 3.779076965332032 0.49124999999999985 Q 3.782076965332032 0.5609999999999999 3.7858269653320322 0.6375 Q 3.789576965332032 0.714 3.792951965332032 0.7874999999999999 Q 3.7963269653320317 0.8609999999999999 3.798951965332032 0.9221249999999999 Q 3.801576965332032 0.98325 3.803451965332032 1.022625 Q 3.805326965332032 1.0619999999999998 3.805326965332032 1.0695 Q 3.775326965332032 1.0739999999999998 3.727326965332032 1.07775 Q 3.6793269653320317 1.0815 3.6317019653320317 1.08375 Q 3.584076965332032 1.0859999999999999 3.554076965332032 1.0859999999999999 Q 3.551826965332032 1.04175 3.549576965332032 0.9791249999999999 Q 3.547326965332032 0.9164999999999999 3.545826965332032 0.8433749999999999 Q 3.544326965332032 0.7702499999999999 3.542826965332032 0.6933749999999999 Q 3.541326965332032 0.6164999999999998 3.540576965332032 0.5429999999999999 Q 3.539826965332032 0.4694999999999999 3.539826965332032 0.4079999999999999 Q 3.539826965332032 0.37349999999999983 3.539826965332032 0.3434999999999999 Q 3.539826965332032 0.3134999999999999 3.540576965332032 0.28949999999999987 Q 3.5150769653320317 0.2909999999999999 3.485076965332032 0.29212499999999986 Q 3.455076965332032 0.2932499999999999 3.423576965332032 0.29474999999999985 Q 3.392076965332032 0.2962499999999999 3.361326965332032 0.29699999999999993 Q 3.330576965332032 0.29774999999999985 3.303576965332032 0.29774999999999985 M 4.399239074707032 1.08825 Q 4.306989074707032 1.08825 4.230489074707032 1.0631249999999999 Q 4.153989074707032 1.0379999999999998 4.108614074707032 0.9813749999999999 Q 4.063239074707032 0.92475 4.063239074707032 0.831 Q 4.063239074707032 0.73725 4.116114074707032 0.6798749999999999 Q 4.1689890747070315 0.6224999999999998 4.255614074707032 0.596625 Q 4.342239074707032 0.5707499999999999 4.441989074707032 0.5707499999999999 Q 4.480989074707032 0.5707499999999999 4.516989074707032 0.5767499999999999 Q 4.552989074707032 0.5827499999999999 4.580364074707032 0.591 Q 4.607739074707032 0.5992499999999998 4.619739074707032 0.6067499999999999 Q 4.618989074707032 0.5872499999999998 4.611864074707032 0.5654999999999999 Q 4.604739074707032 0.5437499999999998 4.5919890747070315 0.5287499999999999 Q 4.569489074707032 0.4979999999999999 4.530864074707032 0.4773749999999999 Q 4.492239074707032 0.4567499999999999 4.429239074707032 0.4567499999999999 Q 4.365489074707032 0.4567499999999999 4.316739074707032 0.48562499999999986 Q 4.267989074707032 0.5144999999999998 4.242489074707032 0.5504999999999999 L 4.059489074707032 0.43274999999999986 Q 4.093239074707032 0.3847499999999999 4.150614074707032 0.3487499999999999 Q 4.207989074707032 0.31274999999999986 4.281114074707032 0.29249999999999987 Q 4.354239074707032 0.2722499999999999 4.434489074707032 0.2722499999999999 Q 4.567239074707032 0.2722499999999999 4.649739074707032 0.31574999999999986 Q 4.7322390747070315 0.35924999999999985 4.771989074707032 0.4372499999999999 Q 4.790739074707032 0.4747499999999999 4.802739074707032 0.5197499999999999 Q 4.814739074707032 0.5647499999999999 4.819239074707032 0.6232499999999999 Q 4.822239074707032 0.6734999999999999 4.823739074707032 0.7169999999999999 Q 4.8252390747070315 0.7605 4.826739074707032 0.7994999999999999 Q 4.828239074707032 0.8564999999999999 4.839489074707032 0.8737499999999999 Q 4.850739074707032 0.8909999999999999 4.8717390747070315 0.8909999999999999 Q 4.891239074707032 0.8909999999999999 4.906614074707032 0.8801249999999999 Q 4.921989074707032 0.8692499999999999 4.926489074707032 0.8512499999999998 L 5.004489074707032 1.0005 Q 4.996239074707032 1.035 4.957989074707032 1.05825 Q 4.9197390747070315 1.0815 4.861239074707032 1.0815 Q 4.818489074707032 1.0815 4.780239074707032 1.0668749999999998 Q 4.741989074707032 1.05225 4.717239074707032 1.0271249999999998 Q 4.692489074707032 1.002 4.687989074707032 0.9697499999999999 Q 4.675989074707032 0.9982499999999999 4.6377390747070315 1.0256249999999998 Q 4.599489074707032 1.053 4.539489074707032 1.070625 Q 4.479489074707032 1.08825 4.399239074707032 1.08825 M 4.449489074707032 0.9119999999999999 Q 4.484739074707032 0.9119999999999999 4.521864074707032 0.901125 Q 4.558989074707032 0.8902499999999999 4.589364074707032 0.8737499999999999 Q 4.619739074707032 0.8572499999999998 4.636239074707032 0.8399999999999999 Q 4.634739074707032 0.8167499999999999 4.633614074707032 0.7919999999999998 Q 4.632489074707032 0.7672499999999999 4.633239074707032 0.7499999999999999 Q 4.616739074707032 0.74325 4.570614074707032 0.7353749999999999 Q 4.524489074707032 0.7274999999999998 4.474239074707032 0.7274999999999998 Q 4.428489074707032 0.7274999999999998 4.388739074707032 0.73725 Q 4.348989074707032 0.7469999999999999 4.323864074707032 0.7672499999999999 Q 4.298739074707032 0.7874999999999999 4.298739074707032 0.8197499999999999 Q 4.298739074707032 0.85425 4.317489074707032 0.8744999999999998 Q 4.336239074707032 0.8947499999999999 4.369989074707032 0.9033749999999999 Q 4.4037390747070315 0.9119999999999999 4.449489074707032 0.9119999999999999 M 5.309772033691407 1.0739999999999998 Q 5.297022033691407 1.0747499999999999 5.261397033691407 1.077375 Q 5.225772033691407 1.0799999999999998 5.186022033691407 1.0799999999999998 Q 5.156772033691407 1.0799999999999998 5.127147033691407 1.078125 Q 5.097522033691407 1.07625 5.069022033691407 1.0732499999999998 Q 5.072772033691407 1.05375 5.077647033691407 0.9933749999999999 Q 5.082522033691407 0.9329999999999998 5.087397033691407 0.8512499999999998 Q 5.092272033691407 0.7694999999999999 5.097147033691407 0.6821249999999999 Q 5.102022033691407 0.5947499999999999 5.104647033691407 0.5182499999999999 Q 5.107272033691407 0.44174999999999986 5.107272033691407 0.3952499999999999 Q 5.122272033691407 0.39449999999999985 5.151522033691407 0.3929999999999999 Q 5.180772033691407 0.39149999999999985 5.214522033691407 0.3903749999999999 Q 5.248272033691407 0.3892499999999999 5.279022033691407 0.38812499999999983 Q 5.309772033691407 0.3869999999999999 5.3277720336914065 0.3869999999999999 Q 5.331522033691407 0.4102499999999999 5.333772033691407 0.46199999999999986 Q 5.336022033691407 0.5137499999999999 5.336022033691407 0.5774999999999999 Q 5.336022033691407 0.6457499999999998 5.334147033691407 0.7222499999999998 Q 5.332272033691407 0.7987499999999998 5.3288970336914065 0.8703749999999999 Q 5.325522033691407 0.942 5.320272033691407 0.9963749999999999 Q 5.315022033691407 1.0507499999999999 5.309772033691407 1.0739999999999998 M 5.225772033691407 0.2902499999999999 Q 5.158272033691407 0.2902499999999999 5.112522033691407 0.25087499999999985 Q 5.066772033691407 0.2114999999999999 5.066772033691407 0.1469999999999999 Q 5.066772033691407 0.1027499999999999 5.088522033691407 0.07124999999999981 Q 5.110272033691407 0.03974999999999995 5.145147033691407 0.02287499999999998 Q 5.180022033691407 0.005999999999999783 5.219022033691407 0.005999999999999783 Q 5.2812720336914065 0.005999999999999783 5.322147033691407 0.046499999999999986 Q 5.363022033691407 0.08699999999999986 5.363022033691407 0.15074999999999983 Q 5.363022033691407 0.20999999999999985 5.324022033691407 0.25012499999999993 Q 5.285022033691407 0.2902499999999999 5.225772033691407 0.2902499999999999 M 5.930761047363282 1.04025 Q 5.909761047363282 1.0627499999999999 5.852386047363282 1.084125 Q 5.795011047363282 1.1055 5.724511047363282 1.1055 Q 5.633011047363282 1.1055 5.585386047363282 1.0627499999999999 Q 5.537761047363282 1.0199999999999998 5.521261047363282 0.9416249999999999 Q 5.5047610473632815 0.8632499999999999 5.5047610473632815 0.7589999999999999 Q 5.5047610473632815 0.6772499999999999 5.506261047363282 0.5947499999999999 Q 5.507761047363282 0.5122499999999999 5.510386047363282 0.4312499999999999 Q 5.513011047363282 0.35024999999999984 5.516386047363282 0.27412499999999984 Q 5.519761047363282 0.19799999999999984 5.523136047363282 0.1293749999999999 Q 5.526511047363282 0.06074999999999986 5.530261047363282 0.00374999999999992 Q 5.583511047363282 -2.220446049250313e-16 5.628511047363282 -2.220446049250313e-16 Q 5.657761047363282 -2.220446049250313e-16 5.686261047363282 0.0014999999999998348 Q 5.714761047363282 0.0029999999999998916 5.749261047363282 0.005999999999999783 Q 5.745511047363282 0.07124999999999981 5.740636047363282 0.15037499999999993 Q 5.735761047363282 0.22949999999999993 5.731636047363282 0.31199999999999983 Q 5.727511047363282 0.39449999999999985 5.723761047363282 0.4717499999999999 Q 5.720011047363282 0.5489999999999999 5.718136047363282 0.6116249999999999 Q 5.7162610473632816 0.6742499999999999 5.7162610473632816 0.7117499999999999 Q 5.7162610473632816 0.7605 5.720386047363282 0.802125 Q 5.724511047363282 0.8437499999999999 5.7395110473632815 0.8696249999999999 Q 5.754511047363282 0.8955 5.784511047363282 0.8955 Q 5.8100110473632816 0.8955 5.826136047363282 0.8838749999999999 Q 5.842261047363282 0.8722499999999999 5.852761047363282 0.85425 Q 5.858011047363282 0.8632499999999999 5.869261047363282 0.8898749999999999 Q 5.880511047363282 0.9164999999999999 5.894011047363282 0.9487499999999999 Q 5.907511047363282 0.9809999999999999 5.918011047363282 1.006875 Q 5.928511047363282 1.0327499999999998 5.930761047363282 1.04025 M 5.982525695800782 1.08225 Q 5.982525695800782 1.0635 5.983275695800782 1.011 Q 5.984025695800782 0.9584999999999999 5.985525695800782 0.8835 Q 5.987025695800782 0.8084999999999999 5.989650695800782 0.7214999999999999 Q 5.992275695800782 0.6344999999999998 5.994900695800782 0.5452499999999999 Q 5.997525695800782 0.45599999999999985 6.000525695800782 0.3746249999999999 Q 6.003525695800782 0.2932499999999999 6.007275695800782 0.23062499999999986 Q 6.011025695800782 0.16799999999999993 6.014025695800782 0.1349999999999999 Q 6.0815256958007815 0.12149999999999983 6.155400695800782 0.11474999999999991 Q 6.229275695800782 0.10799999999999987 6.310275695800782 0.10799999999999987 Q 6.4092756958007815 0.10799999999999987 6.483900695800782 0.13574999999999993 Q 6.558525695800782 0.16349999999999987 6.600150695800782 0.2227499999999999 Q 6.641775695800782 0.2819999999999999 6.641775695800782 0.3757499999999999 Q 6.641775695800782 0.47099999999999986 6.607650695800782 0.5407499999999998 Q 6.573525695800782 0.6104999999999998 6.5041506958007815 0.6479999999999999 Q 6.4347756958007825 0.6854999999999999 6.329775695800782 0.6854999999999999 Q 6.308775695800782 0.6854999999999999 6.279900695800782 0.6821249999999999 Q 6.251025695800782 0.67875 6.235275695800782 0.6742499999999999 Q 6.234525695800782 0.6944999999999999 6.233400695800782 0.7462499999999999 Q 6.232275695800782 0.7979999999999998 6.230400695800782 0.8617499999999999 Q 6.228525695800782 0.9254999999999999 6.227025695800782 0.9869999999999999 Q 6.225525695800782 1.0485 6.225525695800782 1.08825 Q 6.207525695800782 1.08825 6.1752756958007815 1.08825 Q 6.143025695800782 1.08825 6.1059006958007815 1.087125 Q 6.068775695800782 1.0859999999999999 6.0357756958007815 1.0848749999999998 Q 6.002775695800782 1.08375 5.982525695800782 1.08225 M 6.230775695800782 0.47924999999999984 Q 6.246525695800782 0.48224999999999985 6.267150695800782 0.4841249999999999 Q 6.287775695800782 0.4859999999999999 6.307275695800782 0.4859999999999999 Q 6.343275695800782 0.4859999999999999 6.374025695800782 0.4743749999999999 Q 6.404775695800782 0.4627499999999999 6.423525695800782 0.43837499999999985 Q 6.442275695800782 0.4139999999999999 6.442275695800782 0.3757499999999999 Q 6.442275695800782 0.3202499999999999 6.4100256958007815 0.30037499999999984 Q 6.377775695800782 0.28049999999999986 6.323775695800782 0.28049999999999986 Q 6.302775695800782 0.28049999999999986 6.279525695800782 0.28237499999999993 Q 6.256275695800782 0.2842499999999999 6.230775695800782 0.2872499999999999 Q 6.230775695800782 0.29174999999999984 6.230775695800782 0.30974999999999986 Q 6.230775695800782 0.3277499999999999 6.230775695800782 0.35287499999999994 Q 6.230775695800782 0.3779999999999999 6.230775695800782 0.40349999999999986 Q 6.230775695800782 0.42899999999999994 6.230775695800782 0.44999999999999984 Q 6.230775695800782 0.47099999999999986 6.230775695800782 0.47924999999999984 M 7.472783020019532 0.9412499999999999 Q 7.451783020019532 0.9667499999999999 7.420283020019532 0.9914999999999999 Q 7.388783020019532 1.0162499999999999 7.344908020019532 1.036125 Q 7.301033020019532 1.0559999999999998 7.244783020019532 1.0676249999999998 Q 7.188533020019532 1.0792499999999998 7.118783020019532 1.0792499999999998 Q 7.005533020019532 1.0792499999999998 6.917783020019532 1.036125 Q 6.830033020019532 0.9929999999999999 6.780908020019532 0.9078749999999999 Q 6.731783020019532 0.8227499999999999 6.731783020019532 0.696 Q 6.731783020019532 0.5692499999999999 6.782783020019532 0.4751249999999999 Q 6.833783020019532 0.3809999999999999 6.925283020019532 0.3288749999999999 Q 7.016783020019532 0.27674999999999983 7.139033020019532 0.27674999999999983 Q 7.293533020019532 0.27674999999999983 7.382408020019532 0.36262499999999986 Q 7.471283020019532 0.4484999999999999 7.475033020019532 0.5999999999999999 Q 7.475783020019532 0.6277499999999998 7.474283020019532 0.6502499999999999 Q 7.472783020019532 0.67275 7.468283020019532 0.6982499999999998 Q 7.457033020019532 0.6974999999999999 7.420283020019532 0.6967499999999999 Q 7.383533020019532 0.696 7.337408020019532 0.6948749999999999 Q 7.291283020019532 0.6937499999999999 7.250408020019532 0.6929999999999998 Q 7.209533020019532 0.6922499999999998 7.190033020019532 0.6922499999999998 Q 7.124783020019532 0.6922499999999998 7.063658020019532 0.6982499999999998 Q 7.002533020019532 0.7042499999999998 6.961283020019532 0.7109999999999999 Q 6.961283020019532 0.7244999999999999 6.963158020019532 0.737625 Q 6.965033020019532 0.7507499999999999 6.968783020019532 0.7627499999999998 Q 6.978533020019532 0.7934999999999999 7.002908020019532 0.8152499999999999 Q 7.0272830200195315 0.8369999999999999 7.061408020019532 0.848625 Q 7.095533020019532 0.86025 7.133783020019532 0.86025 Q 7.1682830200195315 0.86025 7.197158020019532 0.8516249999999999 Q 7.226033020019532 0.8429999999999999 7.250033020019532 0.8287499999999999 Q 7.274033020019532 0.8144999999999999 7.293908020019532 0.7976249999999999 Q 7.313783020019532 0.7807499999999998 7.331033020019532 0.7642499999999999 Q 7.335533020019532 0.7679999999999999 7.3542830200195315 0.7863749999999998 Q 7.373033020019532 0.8047499999999999 7.396283020019532 0.8313749999999999 Q 7.419533020019532 0.8579999999999999 7.440533020019532 0.8872499999999999 Q 7.461533020019532 0.9164999999999999 7.472783020019532 0.9412499999999999 M 6.969533020019532 0.5707499999999999 Q 7.003283020019532 0.5654999999999999 7.052783020019532 0.5609999999999999 Q 7.102283020019532 0.5564999999999999 7.1675330200195315 0.5564999999999999 Q 7.202783020019532 0.5564999999999999 7.230158020019532 0.5572499999999999 Q 7.257533020019532 0.5579999999999999 7.268783020019532 0.5587499999999999 Q 7.268783020019532 0.5429999999999999 7.264283020019532 0.5242499999999999 Q 7.258283020019532 0.4987499999999999 7.240658020019532 0.4754999999999999 Q 7.223033020019532 0.45224999999999993 7.195658020019532 0.43799999999999983 Q 7.1682830200195315 0.42374999999999985 7.130033020019532 0.42374999999999985 Q 7.082033020019532 0.42374999999999985 7.046408020019532 0.44474999999999987 Q 7.010783020019532 0.4657499999999999 6.991283020019532 0.49949999999999983 Q 6.971783020019532 0.5332499999999999 6.969533020019532 0.5707499999999999 M 8.208525695800782 0.97725 Q 8.194275695800782 1.005 8.163900695800782 1.036125 Q 8.133525695800781 1.0672499999999998 8.085150695800781 1.089375 Q 8.036775695800783 1.1115 7.967775695800782 1.1115 Q 7.877025695800782 1.1115 7.819650695800782 1.0732499999999998 Q 7.762275695800782 1.035 7.734900695800782 0.97125 Q 7.707525695800782 0.9074999999999999 7.707525695800782 0.8317499999999999 Q 7.707525695800782 0.7904999999999999 7.708650695800782 0.7436249999999999 Q 7.709775695800782 0.6967499999999999 7.711275695800782 0.6506249999999999 Q 7.712775695800782 0.6044999999999998 7.714650695800782 0.5628749999999999 Q 7.716525695800782 0.5212499999999999 7.718400695800782 0.4897499999999999 Q 7.720275695800782 0.45824999999999994 7.721025695800782 0.44099999999999984 Q 7.661775695800782 0.44699999999999984 7.611525695800782 0.4541249999999999 Q 7.561275695800782 0.46124999999999994 7.541775695800782 0.4657499999999999 Q 7.534275695800782 0.42374999999999985 7.530525695800782 0.38024999999999987 Q 7.526775695800782 0.3367499999999999 7.524900695800782 0.3044999999999999 Q 7.523025695800782 0.2722499999999999 7.523025695800782 0.26474999999999993 Q 7.566525695800782 0.2587499999999999 7.616025695800782 0.25387499999999985 Q 7.665525695800782 0.2489999999999999 7.720275695800782 0.2467499999999999 Q 7.719525695800782 0.2287499999999999 7.718775695800782 0.1904999999999999 Q 7.718025695800782 0.15224999999999989 7.716525695800782 0.12149999999999983 Q 7.715775695800782 0.09374999999999989 7.713525695800782 0.06562499999999982 Q 7.711275695800782 0.03749999999999987 7.709775695800782 0.02024999999999988 L 7.931775695800782 0.0007499999999998064 Q 7.931775695800782 0.009749999999999925 7.932150695800782 0.042749999999999844 Q 7.932525695800782 0.07574999999999987 7.932525695800782 0.12224999999999986 Q 7.932525695800782 0.14549999999999985 7.933275695800782 0.1758749999999999 Q 7.934025695800782 0.20624999999999993 7.934775695800782 0.23549999999999993 Q 7.959525695800782 0.23399999999999987 7.992525695800782 0.23249999999999993 Q 8.025525695800782 0.23099999999999987 8.045025695800781 0.23024999999999984 Q 8.076525695800783 0.2287499999999999 8.102025695800782 0.22837499999999988 Q 8.127525695800783 0.22799999999999987 8.144400695800782 0.22799999999999987 Q 8.161275695800782 0.22799999999999987 8.167275695800782 0.2287499999999999 Q 8.171775695800783 0.2639999999999999 8.173275695800783 0.31837499999999985 Q 8.174775695800783 0.3727499999999999 8.174775695800783 0.41474999999999984 Q 8.167275695800782 0.4139999999999999 8.126025695800783 0.41512499999999986 Q 8.084775695800783 0.4162499999999999 8.045025695800781 0.41849999999999987 Q 8.017275695800782 0.4192499999999999 7.983525695800782 0.4214999999999999 Q 7.949775695800782 0.42374999999999985 7.930275695800782 0.42599999999999993 Q 7.929525695800782 0.44174999999999986 7.928400695800782 0.4691249999999999 Q 7.927275695800782 0.49649999999999994 7.926150695800782 0.5306249999999999 Q 7.925025695800782 0.5647499999999999 7.923900695800782 0.6011249999999999 Q 7.922775695800782 0.6375 7.922025695800782 0.6712499999999999 Q 7.921275695800782 0.7049999999999998 7.921275695800782 0.73125 Q 7.921275695800782 0.7807499999999998 7.926150695800782 0.8201249999999999 Q 7.931025695800782 0.8594999999999999 7.947900695800782 0.8823749999999999 Q 7.964775695800782 0.9052499999999999 8.000025695800781 0.9052499999999999 Q 8.023275695800782 0.9052499999999999 8.039775695800781 0.8917499999999999 Q 8.056275695800782 0.8782499999999999 8.067150695800782 0.859875 Q 8.078025695800783 0.8414999999999999 8.086275695800783 0.8272499999999999 Q 8.096025695800781 0.8407499999999999 8.113650695800782 0.8628749999999998 Q 8.131275695800781 0.8849999999999999 8.151150695800782 0.9089999999999999 Q 8.171025695800783 0.9329999999999998 8.187150695800781 0.9517499999999999 Q 8.203275695800782 0.9704999999999999 8.208525695800782 0.97725 M 8.561751525878908 1.13475 Q 8.474001525878908 1.13475 8.400876525878909 1.113375 Q 8.327751525878908 1.0919999999999999 8.277126525878908 1.0631249999999999 Q 8.226501525878907 1.03425 8.204001525878908 1.011 Q 8.208501525878908 0.9967499999999999 8.221626525878907 0.9693749999999999 Q 8.234751525878908 0.942 8.252751525878908 0.9097499999999998 Q 8.270751525878907 0.8775 8.288751525878908 0.8497499999999999 Q 8.306751525878909 0.8219999999999998 8.321001525878907 0.8084999999999999 Q 8.357001525878907 0.8392499999999998 8.399001525878909 0.8688749999999998 Q 8.441001525878908 0.8984999999999999 8.485251525878908 0.9172499999999999 Q 8.529501525878908 0.9359999999999999 8.567751525878908 0.9359999999999999 Q 8.597751525878907 0.9359999999999999 8.621751525878908 0.9281249999999999 Q 8.645751525878907 0.9202499999999999 8.659626525878908 0.9044999999999999 Q 8.673501525878908 0.8887499999999999 8.673501525878908 0.8654999999999999 Q 8.673501525878908 0.8384999999999999 8.647626525878907 0.813375 Q 8.621751525878908 0.7882499999999999 8.581251525878908 0.7657499999999999 Q 8.540751525878909 0.74325 8.496501525878909 0.72525 Q 8.435751525878908 0.7004999999999999 8.383251525878908 0.667125 Q 8.330751525878908 0.6337499999999998 8.298501525878908 0.584625 Q 8.266251525878907 0.5354999999999999 8.266251525878907 0.46199999999999986 Q 8.266251525878907 0.3869999999999999 8.310501525878907 0.33599999999999985 Q 8.354751525878909 0.2849999999999999 8.426376525878908 0.2587499999999999 Q 8.498001525878907 0.23249999999999993 8.579751525878908 0.23249999999999993 Q 8.657001525878908 0.23249999999999993 8.736501525878907 0.25387499999999985 Q 8.816001525878908 0.2752499999999999 8.866251525878909 0.31499999999999984 Q 8.861751525878908 0.32924999999999993 8.847126525878908 0.35849999999999993 Q 8.832501525878907 0.38774999999999993 8.811876525878908 0.42112499999999986 Q 8.791251525878907 0.4544999999999999 8.768001525878908 0.48224999999999985 Q 8.737251525878907 0.45599999999999985 8.690751525878907 0.43199999999999994 Q 8.644251525878907 0.4079999999999999 8.593251525878907 0.4079999999999999 Q 8.567751525878908 0.4079999999999999 8.542626525878909 0.4132499999999999 Q 8.517501525878908 0.41849999999999987 8.501376525878907 0.43199999999999994 Q 8.485251525878908 0.4454999999999999 8.485251525878908 0.4687499999999999 Q 8.485251525878908 0.49124999999999985 8.502501525878907 0.5088749999999999 Q 8.519751525878908 0.5264999999999999 8.553126525878907 0.5429999999999999 Q 8.586501525878909 0.5594999999999999 8.631501525878909 0.5774999999999999 Q 8.676501525878908 0.5954999999999999 8.723001525878908 0.619875 Q 8.769501525878908 0.6442499999999999 8.808876525878908 0.6779999999999999 Q 8.848251525878908 0.7117499999999999 8.872251525878909 0.7563749999999999 Q 8.896251525878908 0.8009999999999999 8.896251525878908 0.8587499999999999 Q 8.896251525878908 0.9509999999999998 8.850501525878908 1.0125 Q 8.804751525878908 1.0739999999999998 8.728626525878909 1.1043749999999999 Q 8.652501525878908 1.13475 8.561751525878908 1.13475" fill="#102036" fill-rule="nonzero"></path></g><g><path d=" M 0.0525 1.8383250000000002 L 0.36975 1.8383250000000002 L 0.36975 1.8983250000000003 L 0.11850000000000001 1.8983250000000003 L 0.11850000000000001 2.059575 L 0.33675 2.059575 L 0.33675 2.119575 L 0.11850000000000001 2.119575 L 0.11850000000000001 2.292825 L 0.37425 2.292825 L 0.37425 2.352825 L 0.0525 2.352825 L 0.0525 1.8383250000000002 M 0.41887280273437494 1.958325 L 0.48637280273437494 1.958325 L 0.5396228027343749 2.1585750000000004 L 0.5666228027343749 2.258325 L 0.5696228027343749 2.258325 L 0.596622802734375 2.1563250000000003 L 0.649872802734375 1.958325 L 0.7121228027343749 1.958325 L 0.5988728027343749 2.352825 L 0.532122802734375 2.352825 L 0.41887280273437494 1.958325 M 0.7886026611328124 2.3127 Q 0.7514776611328123 2.2635750000000003 0.7514776611328123 2.1555750000000002 Q 0.7514776611328123 2.0498250000000002 0.7882276611328124 1.999575 Q 0.8249776611328123 1.9493250000000002 0.8999776611328123 1.9493250000000002 Q 0.9659776611328124 1.9493250000000002 0.9978526611328123 1.9932 Q 1.0297276611328123 2.037075 1.0297276611328123 2.1345750000000003 L 1.0297276611328123 2.173575 L 0.8159776611328123 2.173575 Q 0.8167276611328124 2.242575 0.8373526611328124 2.2748250000000003 Q 0.8579776611328124 2.307075 0.9022276611328124 2.307075 Q 0.9322276611328124 2.307075 0.9506026611328123 2.283075 Q 0.9689776611328124 2.259075 0.9689776611328124 2.218575 L 1.0297276611328123 2.218575 Q 1.0297276611328123 2.2845750000000002 0.9941026611328123 2.3232000000000004 Q 0.9584776611328124 2.361825 0.9007276611328123 2.361825 Q 0.8257276611328124 2.361825 0.7886026611328124 2.3127 M 0.9652276611328123 2.118825 Q 0.9652276611328123 2.0625750000000003 0.9487276611328124 2.033325 Q 0.9322276611328124 2.0040750000000003 0.8999776611328123 2.0040750000000003 Q 0.8602276611328123 2.0040750000000003 0.8403526611328124 2.0322 Q 0.8204776611328124 2.060325 0.8167276611328124 2.118825 L 0.9652276611328123 2.118825 M 1.1080979003906248 1.958325 L 1.1545979003906248 1.958325 L 1.162847900390625 2.010075 L 1.1673479003906249 2.010075 Q 1.175597900390625 1.9838250000000002 1.192097900390625 1.9665750000000002 Q 1.2085979003906249 1.9493250000000002 1.234097900390625 1.9493250000000002 Q 1.244597900390625 1.9493250000000002 1.252847900390625 1.95195 Q 1.2610979003906249 1.9545750000000002 1.263347900390625 1.9553250000000002 L 1.263347900390625 2.019075 L 1.2430979003906248 2.019075 Q 1.210847900390625 2.019075 1.1902229003906248 2.0412000000000003 Q 1.169597900390625 2.0633250000000003 1.169597900390625 2.1120750000000004 L 1.169597900390625 2.352825 L 1.1080979003906248 2.352825 L 1.1080979003906248 1.958325 M 1.2974805908203124 2.4833250000000002 L 1.2974805908203124 2.4405750000000004 L 1.3192305908203124 2.4405750000000004 Q 1.3784805908203124 2.4405750000000004 1.3972305908203124 2.352825 L 1.2764805908203125 1.958325 L 1.3439805908203124 1.958325 L 1.4107305908203125 2.1938250000000004 L 1.4309805908203124 2.2643250000000004 L 1.4339805908203125 2.2643250000000004 L 1.4512305908203125 2.1923250000000003 L 1.5074805908203124 1.958325 L 1.5697305908203125 1.958325 L 1.4692305908203125 2.3325750000000003 Q 1.4497305908203124 2.406075 1.4197305908203124 2.4477 Q 1.3897305908203124 2.489325 1.3417305908203125 2.489325 Q 1.3147305908203124 2.489325 1.2974805908203124 2.4833250000000002 M 1.63833544921875 2.3344500000000004 Q 1.62183544921875 2.3085750000000003 1.62183544921875 2.269575 L 1.62183544921875 2.013075 L 1.58808544921875 2.013075 L 1.58808544921875 1.958325 L 1.62183544921875 1.958325 L 1.63533544921875 1.8488250000000002 L 1.68333544921875 1.8488250000000002 L 1.68333544921875 1.958325 L 1.73658544921875 1.958325 L 1.73658544921875 2.013075 L 1.68333544921875 2.013075 L 1.68333544921875 2.271075 Q 1.68333544921875 2.307075 1.71858544921875 2.307075 L 1.73658544921875 2.307075 L 1.73658544921875 2.349825 Q 1.72833544921875 2.3543250000000002 1.71596044921875 2.3573250000000003 Q 1.70358544921875 2.360325 1.69233544921875 2.360325 Q 1.65483544921875 2.360325 1.63833544921875 2.3344500000000004 M 1.79473095703125 1.810575 L 1.85623095703125 1.810575 L 1.85623095703125 1.999575 L 1.86073095703125 1.999575 Q 1.88923095703125 1.9493250000000002 1.94923095703125 1.9493250000000002 Q 1.99648095703125 1.9493250000000002 2.02160595703125 1.9774500000000002 Q 2.04673095703125 2.0055750000000003 2.04673095703125 2.068575 L 2.04673095703125 2.352825 L 1.98523095703125 2.352825 L 1.98523095703125 2.0730750000000002 Q 1.98523095703125 2.034825 1.97098095703125 2.01945 Q 1.95673095703125 2.0040750000000003 1.92973095703125 2.0040750000000003 Q 1.8989809570312501 2.0040750000000003 1.87760595703125 2.033325 Q 1.85623095703125 2.0625750000000003 1.85623095703125 2.1120750000000004 L 1.85623095703125 2.352825 L 1.79473095703125 2.352825 L 1.79473095703125 1.810575 M 2.130351196289063 1.810575 L 2.191851196289063 1.810575 L 2.191851196289063 1.8840750000000002 L 2.130351196289063 1.8840750000000002 L 2.130351196289063 1.810575 M 2.130351196289063 1.958325 L 2.191851196289063 1.958325 L 2.191851196289063 2.352825 L 2.130351196289063 2.352825 L 2.130351196289063 1.958325 M 2.2754813232421878 1.958325 L 2.3219813232421878 1.958325 L 2.330231323242188 2.0040750000000003 L 2.334731323242188 2.0040750000000003 Q 2.3654813232421876 1.9493250000000002 2.429981323242188 1.9493250000000002 Q 2.477231323242188 1.9493250000000002 2.502356323242188 1.9774500000000002 Q 2.527481323242188 2.0055750000000003 2.527481323242188 2.068575 L 2.527481323242188 2.352825 L 2.465981323242188 2.352825 L 2.465981323242188 2.0730750000000002 Q 2.465981323242188 2.034825 2.451731323242188 2.01945 Q 2.4374813232421877 2.0040750000000003 2.410481323242188 2.0040750000000003 Q 2.3797313232421877 2.0040750000000003 2.358356323242188 2.033325 Q 2.336981323242188 2.0625750000000003 2.336981323242188 2.1120750000000004 L 2.336981323242188 2.352825 L 2.2754813232421878 2.352825 L 2.2754813232421878 1.958325 M 2.6088515625000004 2.4627000000000003 Q 2.5833515625000003 2.436075 2.5833515625000003 2.395575 Q 2.5833515625000003 2.3663250000000002 2.5972265625000004 2.3434500000000003 Q 2.6111015625000005 2.3205750000000003 2.6343515625000005 2.3115750000000004 Q 2.6193515625000003 2.301825 2.6107265625000005 2.2860750000000003 Q 2.6021015625000006 2.270325 2.6021015625000006 2.2523250000000004 Q 2.6021015625000006 2.2290750000000004 2.6171015625000003 2.211075 Q 2.6321015625000004 2.1930750000000003 2.6576015625000005 2.184075 Q 2.6118515625000005 2.1465750000000003 2.6118515625000005 2.082075 Q 2.6118515625000005 2.019825 2.6463515625000005 1.9845750000000002 Q 2.6808515625000005 1.9493250000000002 2.7408515625000005 1.9493250000000002 Q 2.7716015625000003 1.9493250000000002 2.7978515625000004 1.963575 Q 2.8218515625000005 1.950825 2.8327265625000004 1.9335750000000003 Q 2.8436015625000004 1.916325 2.8466015625000005 1.8945750000000001 L 2.9006015625000003 1.8945750000000001 Q 2.9006015625000003 1.9305750000000002 2.8829765625000006 1.9560750000000002 Q 2.8653515625000003 1.981575 2.8346015625000005 1.9890750000000001 Q 2.8698515625000005 2.025825 2.8698515625000005 2.082075 Q 2.8698515625000005 2.142825 2.8357265625000005 2.17845 Q 2.8016015625000006 2.2140750000000002 2.7438515625000006 2.2148250000000003 L 2.7026015625000004 2.2148250000000003 Q 2.6876015625000003 2.2148250000000003 2.6771015625000003 2.22495 Q 2.6666015625000004 2.235075 2.6666015625000004 2.2500750000000003 Q 2.6666015625000004 2.2643250000000004 2.6771015625000003 2.2748250000000003 Q 2.6876015625000003 2.2853250000000003 2.7026015625000004 2.2853250000000003 L 2.8151015625 2.2853250000000003 Q 2.8571015625000005 2.2853250000000003 2.8826015625000005 2.31195 Q 2.9081015625000006 2.338575 2.9081015625000006 2.377575 Q 2.9081015625000006 2.4263250000000003 2.8777265625000004 2.457825 Q 2.8473515625000005 2.489325 2.7926015625000002 2.489325 L 2.6808515625000005 2.489325 Q 2.6343515625000005 2.489325 2.6088515625000004 2.4627000000000003 M 2.7899765625000006 2.142075 Q 2.8076015625000004 2.1203250000000002 2.8076015625000004 2.082075 Q 2.8076015625000004 2.042325 2.7899765625000006 2.021325 Q 2.7723515625000004 2.000325 2.7401015625000005 2.000325 Q 2.7078515625000006 2.000325 2.6906015625000004 2.022075 Q 2.6733515625000006 2.043825 2.6733515625000006 2.082075 Q 2.6733515625000006 2.1218250000000003 2.6906015625000004 2.142825 Q 2.7078515625000006 2.163825 2.7401015625000005 2.163825 Q 2.7723515625000004 2.163825 2.7899765625000006 2.142075 M 2.7993515625000005 2.436075 Q 2.8188515625000004 2.436075 2.8323515625000004 2.422575 Q 2.8458515625000005 2.409075 2.8458515625000005 2.3895750000000002 Q 2.8458515625000005 2.3693250000000003 2.8338515625000005 2.3565750000000003 Q 2.8218515625000005 2.3438250000000003 2.7993515625000005 2.3438250000000003 L 2.6906015625000004 2.3438250000000003 Q 2.6681015625000004 2.3438250000000003 2.6564765625000004 2.3565750000000003 Q 2.6448515625000004 2.3693250000000003 2.6448515625000004 2.3895750000000002 Q 2.6448515625000004 2.409825 2.6568515625000004 2.42295 Q 2.6688515625000004 2.436075 2.6906015625000004 2.436075 L 2.7993515625000005 2.436075 M 3.141367309570313 1.8383250000000002 L 3.325117309570313 1.8383250000000002 Q 3.399367309570313 1.8383250000000002 3.439117309570313 1.8788250000000002 Q 3.478867309570313 1.9193250000000002 3.478867309570313 1.9883250000000001 Q 3.478867309570313 2.057325 3.437242309570313 2.0989500000000003 Q 3.395617309570313 2.140575 3.325117309570313 2.140575 L 3.207367309570313 2.140575 L 3.207367309570313 2.352825 L 3.141367309570313 2.352825 L 3.141367309570313 1.8383250000000002 M 3.322867309570313 2.080575 Q 3.361867309570313 2.080575 3.385867309570313 2.05545 Q 3.409867309570313 2.0303250000000004 3.409867309570313 1.9883250000000001 Q 3.409867309570313 1.946325 3.3873673095703127 1.9223250000000003 Q 3.3648673095703128 1.8983250000000003 3.322867309570313 1.8983250000000003 L 3.207367309570313 1.8983250000000003 L 3.207367309570313 2.080575 L 3.322867309570313 2.080575 M 3.568865112304688 2.3127 Q 3.531740112304688 2.2635750000000003 3.531740112304688 2.1555750000000002 Q 3.531740112304688 2.0498250000000002 3.568490112304688 1.999575 Q 3.605240112304688 1.9493250000000002 3.680240112304688 1.9493250000000002 Q 3.746240112304688 1.9493250000000002 3.778115112304688 1.9932 Q 3.809990112304688 2.037075 3.809990112304688 2.1345750000000003 L 3.809990112304688 2.173575 L 3.596240112304688 2.173575 Q 3.596990112304688 2.242575 3.617615112304688 2.2748250000000003 Q 3.638240112304688 2.307075 3.682490112304688 2.307075 Q 3.712490112304688 2.307075 3.730865112304688 2.283075 Q 3.749240112304688 2.259075 3.749240112304688 2.218575 L 3.809990112304688 2.218575 Q 3.809990112304688 2.2845750000000002 3.774365112304688 2.3232000000000004 Q 3.738740112304688 2.361825 3.680990112304688 2.361825 Q 3.605990112304688 2.361825 3.568865112304688 2.3127 M 3.745490112304688 2.118825 Q 3.745490112304688 2.0625750000000003 3.728990112304688 2.033325 Q 3.712490112304688 2.0040750000000003 3.680240112304688 2.0040750000000003 Q 3.640490112304688 2.0040750000000003 3.620615112304688 2.0322 Q 3.600740112304688 2.060325 3.596990112304688 2.118825 L 3.745490112304688 2.118825 M 3.9041103515625006 2.3344500000000004 Q 3.8876103515625005 2.3085750000000003 3.8876103515625005 2.269575 L 3.8876103515625005 2.013075 L 3.8538603515625005 2.013075 L 3.8538603515625005 1.958325 L 3.8876103515625005 1.958325 L 3.9011103515625005 1.8488250000000002 L 3.9491103515625006 1.8488250000000002 L 3.9491103515625006 1.958325 L 4.0023603515625 1.958325 L 4.0023603515625 2.013075 L 3.9491103515625006 2.013075 L 3.9491103515625006 2.271075 Q 3.9491103515625006 2.307075 3.9843603515625006 2.307075 L 4.0023603515625 2.307075 L 4.0023603515625 2.349825 Q 3.9941103515625005 2.3543250000000002 3.9817353515625005 2.3573250000000003 Q 3.9693603515625004 2.360325 3.9581103515625005 2.360325 Q 3.9206103515625004 2.360325 3.9041103515625006 2.3344500000000004 M 4.071755859375001 2.32845 Q 4.040255859375001 2.295075 4.040255859375001 2.246325 Q 4.040255859375001 2.2373250000000002 4.040630859375001 2.23395 Q 4.041005859375001 2.230575 4.041005859375001 2.229825 L 4.1055058593750005 2.229825 L 4.1055058593750005 2.2373250000000002 Q 4.1055058593750005 2.2725750000000002 4.123505859375 2.2902 Q 4.141505859375001 2.3078250000000002 4.170005859375 2.3078250000000002 Q 4.195505859375 2.3078250000000002 4.212380859375001 2.29245 Q 4.229255859375001 2.277075 4.229255859375001 2.2493250000000002 Q 4.229255859375001 2.2283250000000003 4.218755859375 2.2148250000000003 Q 4.208255859375001 2.201325 4.193255859375 2.1934500000000003 Q 4.1782558593750005 2.185575 4.151255859375 2.175825 Q 4.118255859375001 2.164575 4.098005859375 2.153325 Q 4.077755859375 2.142075 4.063505859375001 2.1199500000000002 Q 4.049255859375001 2.0978250000000003 4.049255859375001 2.0618250000000002 Q 4.049255859375001 2.010075 4.0826308593750005 1.9797000000000002 Q 4.116005859375001 1.9493250000000002 4.172255859375 1.9493250000000002 Q 4.225505859375001 1.9493250000000002 4.255505859375001 1.9804500000000003 Q 4.285505859375 2.011575 4.285505859375 2.057325 L 4.284755859375 2.071575 L 4.221005859375 2.071575 L 4.221005859375 2.064825 Q 4.221005859375 2.0385750000000002 4.208255859375001 2.02095 Q 4.195505859375 2.0033250000000002 4.166255859375001 2.0033250000000002 Q 4.137005859375001 2.0033250000000002 4.125005859375 2.019825 Q 4.113005859375001 2.036325 4.113005859375001 2.057325 Q 4.113005859375001 2.082825 4.1306308593750005 2.0952 Q 4.148255859375 2.107575 4.185005859375001 2.119575 Q 4.218755859375 2.131575 4.240505859375 2.1432 Q 4.262255859375 2.154825 4.277630859375001 2.178075 Q 4.2930058593750005 2.201325 4.2930058593750005 2.2403250000000003 Q 4.2930058593750005 2.301075 4.258880859375001 2.3314500000000002 Q 4.2247558593750005 2.361825 4.167005859375001 2.361825 Q 4.103255859375 2.361825 4.071755859375001 2.32845 M 4.402110717773438 2.352825 L 4.372110717773438 2.352825 L 4.372110717773438 2.271825 L 4.447110717773438 2.271825 L 4.447110717773438 2.3460750000000004 L 4.411110717773438 2.445825 L 4.372110717773438 2.445825 L 4.402110717773438 2.352825 M 4.710776733398438 2.328075 Q 4.678151733398439 2.294325 4.678151733398439 2.230575 L 4.678151733398439 2.196825 L 4.744151733398438 2.196825 L 4.744151733398438 2.234325 Q 4.744151733398438 2.266575 4.759151733398438 2.283825 Q 4.774151733398438 2.301075 4.802651733398438 2.301075 Q 4.831151733398438 2.301075 4.846151733398438 2.283825 Q 4.861151733398438 2.266575 4.861151733398438 2.234325 L 4.861151733398438 1.8383250000000002 L 4.927151733398438 1.8383250000000002 L 4.927151733398438 2.230575 Q 4.927151733398438 2.294325 4.894526733398438 2.328075 Q 4.8619017333984385 2.361825 4.802651733398438 2.361825 Q 4.743401733398438 2.361825 4.710776733398438 2.328075 M 5.047131591796876 2.3337000000000003 Q 5.022006591796876 2.305575 5.022006591796876 2.242575 L 5.022006591796876 1.958325 L 5.083506591796875 1.958325 L 5.083506591796875 2.2380750000000003 Q 5.083506591796875 2.2763250000000004 5.097756591796876 2.2917 Q 5.1120065917968756 2.307075 5.139006591796876 2.307075 Q 5.169756591796876 2.307075 5.191131591796876 2.277825 Q 5.212506591796876 2.248575 5.212506591796876 2.199075 L 5.212506591796876 1.958325 L 5.2740065917968755 1.958325 L 5.2740065917968755 2.352825 L 5.2275065917968755 2.352825 L 5.219256591796876 2.307075 L 5.214756591796876 2.307075 Q 5.184006591796876 2.361825 5.119506591796876 2.361825 Q 5.072256591796876 2.361825 5.047131591796876 2.3337000000000003 M 5.376376831054689 2.32845 Q 5.344876831054688 2.295075 5.344876831054688 2.246325 Q 5.344876831054688 2.2373250000000002 5.345251831054688 2.23395 Q 5.345626831054688 2.230575 5.345626831054688 2.229825 L 5.410126831054688 2.229825 L 5.410126831054688 2.2373250000000002 Q 5.410126831054688 2.2725750000000002 5.428126831054688 2.2902 Q 5.446126831054689 2.3078250000000002 5.474626831054688 2.3078250000000002 Q 5.500126831054688 2.3078250000000002 5.517001831054689 2.29245 Q 5.533876831054688 2.277075 5.533876831054688 2.2493250000000002 Q 5.533876831054688 2.2283250000000003 5.523376831054688 2.2148250000000003 Q 5.5128768310546885 2.201325 5.497876831054688 2.1934500000000003 Q 5.482876831054688 2.185575 5.455876831054688 2.175825 Q 5.422876831054689 2.164575 5.402626831054688 2.153325 Q 5.382376831054688 2.142075 5.368126831054688 2.1199500000000002 Q 5.353876831054689 2.0978250000000003 5.353876831054689 2.0618250000000002 Q 5.353876831054689 2.010075 5.387251831054688 1.9797000000000002 Q 5.420626831054689 1.9493250000000002 5.476876831054688 1.9493250000000002 Q 5.530126831054688 1.9493250000000002 5.5601268310546885 1.9804500000000003 Q 5.590126831054688 2.011575 5.590126831054688 2.057325 L 5.589376831054688 2.071575 L 5.525626831054688 2.071575 L 5.525626831054688 2.064825 Q 5.525626831054688 2.0385750000000002 5.5128768310546885 2.02095 Q 5.500126831054688 2.0033250000000002 5.470876831054689 2.0033250000000002 Q 5.4416268310546885 2.0033250000000002 5.429626831054688 2.019825 Q 5.4176268310546885 2.036325 5.4176268310546885 2.057325 Q 5.4176268310546885 2.082825 5.435251831054688 2.0952 Q 5.452876831054688 2.107575 5.4896268310546885 2.119575 Q 5.523376831054688 2.131575 5.545126831054688 2.1432 Q 5.566876831054688 2.154825 5.5822518310546885 2.178075 Q 5.597626831054688 2.201325 5.597626831054688 2.2403250000000003 Q 5.597626831054688 2.301075 5.563501831054689 2.3314500000000002 Q 5.529376831054688 2.361825 5.471626831054689 2.361825 Q 5.407876831054688 2.361825 5.376376831054689 2.32845 M 5.6894816894531255 2.3344500000000004 Q 5.672981689453126 2.3085750000000003 5.672981689453126 2.269575 L 5.672981689453126 2.013075 L 5.639231689453126 2.013075 L 5.639231689453126 1.958325 L 5.672981689453126 1.958325 L 5.686481689453126 1.8488250000000002 L 5.734481689453125 1.8488250000000002 L 5.734481689453125 1.958325 L 5.787731689453126 1.958325 L 5.787731689453126 2.013075 L 5.734481689453125 2.013075 L 5.734481689453125 2.271075 Q 5.734481689453125 2.307075 5.769731689453126 2.307075 L 5.787731689453126 2.307075 L 5.787731689453126 2.349825 Q 5.779481689453126 2.3543250000000002 5.767106689453126 2.3573250000000003 Q 5.754731689453126 2.360325 5.743481689453126 2.360325 Q 5.705981689453126 2.360325 5.6894816894531255 2.3344500000000004 M 6.030022705078126 2.337825 Q 5.998522705078126 2.313825 5.998522705078126 2.2508250000000003 Q 5.998522705078126 2.175075 6.049897705078126 2.1469500000000004 Q 6.101272705078126 2.118825 6.198022705078126 2.118825 L 6.198022705078126 2.067825 Q 6.198022705078126 2.037075 6.184522705078126 2.020575 Q 6.171022705078126 2.0040750000000003 6.135772705078126 2.0040750000000003 Q 6.1035227050781256 2.0040750000000003 6.089272705078126 2.022075 Q 6.075022705078126 2.0400750000000003 6.075022705078126 2.066325 L 6.075022705078126 2.0753250000000003 L 6.014272705078126 2.0753250000000003 Q 6.013522705078126 2.070825 6.013522705078126 2.058825 Q 6.013522705078126 2.0063250000000004 6.048022705078126 1.9778250000000002 Q 6.082522705078126 1.9493250000000002 6.140272705078126 1.9493250000000002 Q 6.199522705078126 1.9493250000000002 6.229522705078126 1.9778250000000002 Q 6.259522705078126 2.0063250000000004 6.259522705078126 2.059575 L 6.259522705078126 2.280825 Q 6.259522705078126 2.293575 6.265522705078126 2.300325 Q 6.271522705078126 2.307075 6.280522705078126 2.307075 L 6.304522705078126 2.307075 L 6.304522705078126 2.349825 Q 6.288022705078126 2.358825 6.264022705078126 2.358825 Q 6.240022705078126 2.358825 6.223897705078126 2.3457000000000003 Q 6.207772705078126 2.3325750000000003 6.201772705078126 2.3100750000000003 L 6.198022705078126 2.3100750000000003 Q 6.183022705078126 2.3348250000000004 6.157897705078126 2.348325 Q 6.132772705078126 2.361825 6.1020227050781255 2.361825 Q 6.061522705078126 2.361825 6.030022705078126 2.337825 M 6.155272705078126 2.2958250000000002 Q 6.174022705078126 2.2845750000000002 6.186022705078126 2.2624500000000003 Q 6.198022705078126 2.2403250000000003 6.198022705078126 2.209575 L 6.198022705078126 2.173575 Q 6.130522705078126 2.173575 6.096772705078126 2.18895 Q 6.063022705078126 2.2043250000000003 6.063022705078126 2.247075 Q 6.063022705078126 2.279325 6.076147705078126 2.2932 Q 6.089272705078126 2.307075 6.116272705078126 2.307075 Q 6.136522705078126 2.307075 6.155272705078126 2.2958250000000002 M 6.519788452148439 2.095575 Q 6.519788452148439 1.8293250000000003 6.7222884521484385 1.8293250000000003 Q 6.804038452148439 1.8293250000000003 6.852788452148438 1.8792000000000002 Q 6.901538452148438 1.929075 6.901538452148438 2.024325 L 6.834038452148438 2.024325 Q 6.834038452148438 1.958325 6.804038452148439 1.9242000000000001 Q 6.774038452148439 1.8900750000000002 6.7222884521484385 1.8900750000000002 Q 6.654788452148439 1.8900750000000002 6.621788452148438 1.9365750000000002 Q 6.588788452148439 1.9830750000000001 6.588788452148439 2.0768250000000004 L 6.588788452148439 2.114325 Q 6.588788452148439 2.208075 6.621788452148438 2.254575 Q 6.654788452148439 2.301075 6.7222884521484385 2.301075 Q 6.775538452148439 2.301075 6.805913452148438 2.267325 Q 6.836288452148438 2.233575 6.836288452148438 2.1683250000000003 L 6.901538452148438 2.1683250000000003 Q 6.901538452148438 2.2643250000000004 6.853163452148438 2.313075 Q 6.804788452148438 2.361825 6.7222884521484385 2.361825 Q 6.519788452148439 2.361825 6.519788452148439 2.095575 M 6.970898437500001 1.810575 L 7.032398437500001 1.810575 L 7.032398437500001 2.352825 L 6.970898437500001 2.352825 L 6.970898437500001 1.810575 M 7.108528564453126 1.810575 L 7.170028564453126 1.810575 L 7.170028564453126 1.8840750000000002 L 7.108528564453126 1.8840750000000002 L 7.108528564453126 1.810575 M 7.108528564453126 1.958325 L 7.170028564453126 1.958325 L 7.170028564453126 2.352825 L 7.108528564453126 2.352825 L 7.108528564453126 1.958325 M 7.268283691406251 2.31195 Q 7.235658691406251 2.2620750000000003 7.235658691406251 2.1555750000000002 Q 7.235658691406251 2.049075 7.268658691406251 1.9992 Q 7.301658691406251 1.9493250000000002 7.370658691406251 1.9493250000000002 Q 7.433658691406251 1.9493250000000002 7.462533691406251 1.9883250000000001 Q 7.491408691406251 2.0273250000000003 7.491408691406251 2.104575 L 7.4276586914062515 2.104575 Q 7.4276586914062515 2.0513250000000003 7.415283691406251 2.0277000000000003 Q 7.402908691406251 2.0040750000000003 7.370658691406251 2.0040750000000003 Q 7.3346586914062515 2.0040750000000003 7.317408691406251 2.0382000000000002 Q 7.300158691406251 2.072325 7.300158691406251 2.141325 L 7.300158691406251 2.1698250000000003 Q 7.300158691406251 2.2388250000000003 7.317033691406251 2.2729500000000002 Q 7.3339086914062515 2.307075 7.370658691406251 2.307075 Q 7.402908691406251 2.307075 7.416783691406251 2.282325 Q 7.430658691406252 2.257575 7.430658691406252 2.206575 L 7.491408691406251 2.206575 Q 7.491408691406251 2.2740750000000003 7.461783691406251 2.31795 Q 7.432158691406251 2.361825 7.370658691406251 2.361825 Q 7.300908691406251 2.361825 7.268283691406251 2.31195 M 7.562263549804689 1.810575 L 7.623763549804688 1.810575 L 7.623763549804688 2.141325 L 7.751263549804689 1.958325 L 7.819513549804689 1.958325 L 7.703263549804689 2.1203250000000002 L 7.825513549804689 2.352825 L 7.755763549804689 2.352825 L 7.665763549804689 2.172825 L 7.623763549804688 2.218575 L 7.623763549804688 2.352825 L 7.562263549804689 2.352825 L 7.562263549804689 1.810575 M 8.12702673339844 1.8383250000000002 L 8.21177673339844 1.8383250000000002 L 8.375276733398438 2.352825 L 8.30402673339844 2.352825 L 8.26877673339844 2.2380750000000003 L 8.064776733398439 2.2380750000000003 L 8.02952673339844 2.352825 L 7.963526733398439 2.352825 L 8.12702673339844 1.8383250000000002 M 8.250026733398439 2.178075 L 8.180276733398438 1.9493250000000002 Q 8.177276733398438 1.938825 8.17315173339844 1.9189500000000002 Q 8.16902673339844 1.8990750000000003 8.16827673339844 1.892325 L 8.16527673339844 1.892325 Q 8.16452673339844 1.8990750000000003 8.160401733398439 1.9189500000000002 Q 8.156276733398439 1.938825 8.153276733398439 1.9493250000000002 L 8.082776733398438 2.178075 L 8.250026733398439 2.178075 M 8.365916748046876 1.958325 L 8.433416748046877 1.958325 L 8.482916748046875 2.1803250000000003 Q 8.487416748046876 2.200575 8.492291748046876 2.23245 Q 8.497166748046876 2.2643250000000004 8.498666748046876 2.2740750000000003 L 8.501666748046876 2.2740750000000003 Q 8.502416748046876 2.265075 8.505791748046876 2.23545 Q 8.509166748046876 2.2058250000000004 8.513666748046877 2.1803250000000003 L 8.553416748046876 1.958325 L 8.624666748046875 1.958325 L 8.665166748046877 2.1803250000000003 Q 8.669666748046875 2.2050750000000003 8.673041748046876 2.235075 Q 8.676416748046876 2.265075 8.677166748046876 2.2740750000000003 L 8.680166748046876 2.2740750000000003 Q 8.680916748046876 2.265825 8.685416748046876 2.2373250000000002 Q 8.689916748046876 2.208825 8.695916748046876 2.1803250000000003 L 8.745416748046877 1.958325 L 8.807666748046877 1.958325 L 8.709416748046877 2.352825 L 8.641166748046876 2.352825 L 8.599916748046876 2.127825 Q 8.595416748046876 2.102325 8.592041748046876 2.0738250000000003 Q 8.588666748046876 2.045325 8.587916748046876 2.037075 L 8.584916748046876 2.037075 Q 8.584166748046876 2.045325 8.580791748046876 2.0738250000000003 Q 8.577416748046875 2.102325 8.572916748046877 2.127825 L 8.532416748046876 2.352825 L 8.464166748046877 2.352825 L 8.365916748046876 1.958325 M 8.86727673339844 2.337825 Q 8.835776733398438 2.313825 8.835776733398438 2.2508250000000003 Q 8.835776733398438 2.175075 8.887151733398438 2.1469500000000004 Q 8.938526733398438 2.118825 9.035276733398439 2.118825 L 9.035276733398439 2.067825 Q 9.035276733398439 2.037075 9.021776733398438 2.020575 Q 9.00827673339844 2.0040750000000003 8.97302673339844 2.0040750000000003 Q 8.940776733398438 2.0040750000000003 8.92652673339844 2.022075 Q 8.91227673339844 2.0400750000000003 8.91227673339844 2.066325 L 8.91227673339844 2.0753250000000003 L 8.851526733398439 2.0753250000000003 Q 8.850776733398439 2.070825 8.850776733398439 2.058825 Q 8.850776733398439 2.0063250000000004 8.885276733398438 1.9778250000000002 Q 8.91977673339844 1.9493250000000002 8.977526733398438 1.9493250000000002 Q 9.036776733398439 1.9493250000000002 9.06677673339844 1.9778250000000002 Q 9.096776733398439 2.0063250000000004 9.096776733398439 2.059575 L 9.096776733398439 2.280825 Q 9.096776733398439 2.293575 9.10277673339844 2.300325 Q 9.10877673339844 2.307075 9.117776733398438 2.307075 L 9.141776733398439 2.307075 L 9.141776733398439 2.349825 Q 9.125276733398438 2.358825 9.10127673339844 2.358825 Q 9.077276733398438 2.358825 9.06115173339844 2.3457000000000003 Q 9.045026733398439 2.3325750000000003 9.039026733398439 2.3100750000000003 L 9.035276733398439 2.3100750000000003 Q 9.02027673339844 2.3348250000000004 8.995151733398439 2.348325 Q 8.97002673339844 2.361825 8.939276733398438 2.361825 Q 8.898776733398439 2.361825 8.86727673339844 2.337825 M 8.992526733398439 2.2958250000000002 Q 9.01127673339844 2.2845750000000002 9.023276733398438 2.2624500000000003 Q 9.035276733398439 2.2403250000000003 9.035276733398439 2.209575 L 9.035276733398439 2.173575 Q 8.96777673339844 2.173575 8.934026733398438 2.18895 Q 8.900276733398439 2.2043250000000003 8.900276733398439 2.247075 Q 8.900276733398439 2.279325 8.91340173339844 2.2932 Q 8.92652673339844 2.307075 8.953526733398439 2.307075 Q 8.97377673339844 2.307075 8.992526733398439 2.2958250000000002 M 9.18189697265625 2.4833250000000002 L 9.18189697265625 2.4405750000000004 L 9.203646972656252 2.4405750000000004 Q 9.262896972656252 2.4405750000000004 9.281646972656251 2.352825 L 9.160896972656252 1.958325 L 9.22839697265625 1.958325 L 9.295146972656251 2.1938250000000004 L 9.315396972656252 2.2643250000000004 L 9.31839697265625 2.2643250000000004 L 9.335646972656251 2.1923250000000003 L 9.391896972656252 1.958325 L 9.454146972656252 1.958325 L 9.353646972656252 2.3325750000000003 Q 9.334146972656251 2.406075 9.304146972656252 2.4477 Q 9.27414697265625 2.489325 9.22614697265625 2.489325 Q 9.199146972656251 2.489325 9.18189697265625 2.4833250000000002" fill="#004a80" fill-rule="nonzero"></path></g></g><defs><clipPath id="SvgjsClipPath1055"><path d=" M 1.6524770546291485 -7.531638219435949 h 6.155922721796392 v 7.281638219435949 h -6.155922721796392 Z"></path></clipPath><clipPath id="SvgjsClipPath1053eff6cdb7-0ce1-4659-b342-550272def5ff"><path d=" M 1.6524770546291485 -7.531638219435949 L 7.80839977642554 -7.531638219435949 L 7.80839977642554 -0.25 L 1.6524770546291485 -0.25 Z"></path></clipPath></defs></svg>